<svg width="24" height="24" viewBox="0 0 24 24" fill="none" xmlns="http://www.w3.org/2000/svg">
<path d="M11.9999 10.7C14.7999 10.7 16.9999 8.5 16.9999 5.7C16.9999 2.9 14.7999 0.699997 11.9999 0.699997C9.1999 0.699997 6.9999 2.9 6.9999 5.7C6.9999 8.5 9.1999 10.7 11.9999 10.7ZM11.9999 1.7C14.1999 1.7 15.9999 3.5 15.9999 5.7C15.9999 7.9 14.1999 9.7 11.9999 9.7C9.7999 9.7 7.9999 7.9 7.9999 5.7C7.9999 3.5 9.7999 1.7 11.9999 1.7ZM12.0999 12.8C6.9999 12.8 3.3999 18 3.3999 22.7H4.3999C4.3999 18.5 7.6999 13.8 12.0999 13.8C16.8999 13.8 19.6999 18.3 19.6999 22.7H20.6999C20.6999 17.8 17.4999 12.8 12.0999 12.8Z" fill="#1C1C1C"/>
</svg>
