<svg width="50" height="50" viewBox="0 0 50 50" fill="none" xmlns="http://www.w3.org/2000/svg">
<circle cx="25" cy="25" r="24.4" fill="white" stroke="black" stroke-width="1.2"/>
<path d="M21.8885 28.1115C20.643 26.8659 18.9414 26.0342 17.1301 25.4776C16.5936 25.3127 16.0443 25.1711 15.4904 25.0496C16.0433 24.9327 16.5915 24.7954 17.1271 24.6345C18.9391 24.0904 20.642 23.2668 21.8885 22.0202C23.1348 20.774 23.9664 19.0635 24.5227 17.2403C24.7153 16.6093 24.8762 15.9605 25.0101 15.3069C25.1401 15.9229 25.2945 16.5343 25.4775 17.1301C26.0341 18.9413 26.8659 20.6429 28.1115 21.8885C29.357 23.1341 31.0586 23.9658 32.8699 24.5224C33.4812 24.7103 34.109 24.868 34.7415 25C34.109 25.132 33.4812 25.2897 32.8699 25.4775C31.0586 26.0341 29.357 26.8659 28.1115 28.1115C26.8659 29.3571 26.0341 31.0587 25.4775 32.8699C25.2897 33.4813 25.132 34.109 25 34.7414C24.868 34.109 24.7103 33.4813 24.5225 32.8699C23.9659 31.0587 23.1341 29.3571 21.8885 28.1115Z" stroke="black"/>
<path d="M25 5C24.5 7 24.5 9 25 11.5C25.5 9 25.5 7.5 25 5Z" fill="black"/>
<path d="M25 38C24.5 40 24.5 42 25 44.5C25.5 42 25.5 40.5 25 38Z" fill="black"/>
<path d="M44.75 25.125C42.75 24.625 40.75 24.625 38.25 25.125C40.75 25.625 42.25 25.625 44.75 25.125Z" fill="black"/>
<path d="M11.75 25.125C9.75 24.625 7.75 24.625 5.25 25.125C7.75 25.625 9.25 25.625 11.75 25.125Z" fill="black"/>
</svg>
