<svg width="186" height="40" viewBox="0 0 186 40" fill="none" xmlns="http://www.w3.org/2000/svg">
<g clip-path="url(#clip0_3_85)">
<path d="M103.364 16.5964L103.205 16.7878H116.411L117.41 11.9849L117.156 12.227C114.924 14.3653 112.928 15.1607 109.809 15.1607H107.494V2.9552C107.494 1.65061 107.715 0.982527 108.372 0.307741L108.558 0.116312H103.332L103.518 0.307741C104.134 0.940412 104.396 1.73293 104.396 2.9552V12.9296C104.396 15.1961 103.908 15.958 103.364 16.5964ZM66.9888 16.5964L66.8028 16.7878H72.1773L71.9913 16.5964C71.2771 15.8623 71.0399 15.2181 71.0399 12.8568V2.9552C71.0399 2.16173 71.1636 1.14524 72.1345 0.314441L72.367 0.115355H67.9086L61.6134 12.9152L55.3527 0.176612L55.322 0.115355H50.8087L51.0161 0.306784C51.9461 1.18353 52.1153 1.88511 52.1153 2.95137V12.9296C52.1153 15.4574 51.5573 16.0336 51.0124 16.5916L50.8264 16.783H54.937L54.7212 16.5859C54.0776 15.9982 53.7745 15.4459 53.7745 12.9286V3.66253L60.1543 16.7218L60.185 16.784H61.5297L67.9402 3.89033V12.8521C67.9402 15.2114 67.704 15.8556 66.9888 16.5964ZM6.8913 0.315398C7.98498 1.21607 7.98498 2.44026 7.98498 3.73527V11.7619C7.98498 13.0875 7.58508 15.3119 4.91598 15.3119C3.05598 15.3119 1.84698 14.2131 0.2232 12.5362L0 12.3122L0.42315 16.1312L0.48825 16.1542C1.96233 16.6706 3.50857 16.9354 5.06571 16.9381C9.00054 16.9381 11.08 15.1482 11.08 11.7619V3.73527C11.08 2.44026 11.08 1.21607 12.1774 0.315398L12.4211 0.115355H6.64764L6.8913 0.315398ZM28.5817 0.0378265C23.4258 0.0378265 19.5374 3.63764 19.5374 8.41187C19.5374 13.591 23.0277 16.9381 28.4292 16.9381C33.7488 16.9381 37.3228 13.5115 37.3228 8.41187C37.3228 3.48354 33.7283 0.0378265 28.5817 0.0378265ZM28.5064 15.3119C25.1751 15.3119 22.9366 12.5362 22.9366 8.41187C22.9366 4.31338 25.123 1.66497 28.5064 1.66497C31.7967 1.66497 33.9236 4.31338 33.9236 8.41187C33.9236 12.5391 31.7465 15.3119 28.5064 15.3119ZM185.754 12.5362C183.468 14.7376 181.489 15.1569 178.636 15.1569H175.87V8.7574H181.588L182.204 7.13026H175.87V1.7425H178.409C181.085 1.7425 182.306 1.7425 184.926 4.05304L185.161 4.2617L184.406 0.115355H171.653L171.817 0.306784C172.452 1.0323 172.774 1.76164 172.774 3.7391V13.1679C172.774 14.7702 172.687 15.6326 171.89 16.6021L171.738 16.7878H185.163L186 12.3036L185.754 12.5362ZM132.011 0.0378265C126.855 0.0378265 122.966 3.63764 122.966 8.41187C122.966 13.591 126.458 16.9381 131.86 16.9381C137.179 16.9381 140.752 13.5115 140.752 8.41187C140.752 3.48354 137.158 0.0378265 132.011 0.0378265ZM131.934 15.3119C128.55 15.3119 126.365 12.6032 126.365 8.41187C126.365 4.31338 128.55 1.66497 131.934 1.66497C135.226 1.66497 137.353 4.31338 137.353 8.41187C137.353 12.5391 135.175 15.3119 131.934 15.3119ZM160.711 0.307741C161.472 1.09164 161.813 1.78365 161.813 3.8128V12.3208L151.404 0.153641L151.371 0.115355H147.424L147.61 0.306784C148.749 1.47833 148.94 2.31008 148.94 3.73431V13.0081C148.94 14.8554 148.535 15.6364 147.683 16.5945L147.516 16.7859H151.874L151.705 16.5945C150.938 15.7331 150.596 15.0114 150.596 13.0081V3.56873L161.687 16.7448L161.72 16.784H163.47V3.8128C163.47 1.81907 163.858 1.04187 164.574 0.307741L164.76 0.116312H160.522L160.711 0.307741ZM94.5438 13.1181L88.8689 0.181398L88.8392 0.115355H86.6537L81.096 12.4931C80.2339 14.416 79.2518 15.869 78.3283 16.582L78.067 16.7878H83.0295L82.8677 16.5964C82.2287 15.8565 82.2083 14.6534 82.8109 13.2081L83.3122 12.0289H90.741L91.3176 13.3689C91.7826 14.4715 91.7371 15.5349 91.1707 16.6232L91.0842 16.7878H97.1134L96.8595 16.5859C95.8467 15.778 95.0897 14.3069 94.5438 13.1181ZM84.165 10.0132L87.0285 3.23756L89.8901 10.0132H84.165ZM62.0766 38.8366H60.464V33.7494C60.464 32.6544 60.6165 32.2897 60.9801 31.8351L61.0545 31.7394H58.6365L58.6923 31.8265C58.9713 32.2667 59.1368 32.5654 59.1368 33.5886V38.2623C59.1368 38.9198 58.9694 39.5018 58.6988 39.7813L58.6058 39.877H64.848L65.2655 37.308L65.1409 37.4468C64.2751 38.4193 63.3581 38.8366 62.0766 38.8366ZM74.786 31.6685C73.6262 31.6685 72.5447 32.0638 71.7411 32.7826C70.8734 33.5579 70.4159 34.6194 70.4159 35.8532C70.4159 38.5513 72.5381 39.9622 74.6353 39.9622C77.2086 39.9622 79.0063 38.2393 79.0063 35.7756C79.0054 33.3962 77.2309 31.6685 74.786 31.6685ZM74.7106 38.9141C73.138 38.9141 72.0387 37.6555 72.0387 35.8512C72.0387 33.9456 73.0878 32.7137 74.7106 32.7137C76.0024 32.7137 77.3825 33.5177 77.3825 35.7766C77.3825 37.6535 76.3084 38.9141 74.7106 38.9141ZM129.656 31.8389C130.105 32.3778 130.249 32.842 130.249 33.7532V37.3463L125.499 31.769L125.482 31.7499H123.494L123.605 31.8456C124.144 32.3242 124.344 32.7951 124.344 33.5962V38.2699C124.348 38.5508 124.298 38.8297 124.197 39.0904C124.095 39.3512 123.945 39.5886 123.753 39.7889L123.66 39.8846H125.969L125.876 39.7889C125.536 39.4405 125.363 38.9275 125.363 38.2699V33.825L130.49 39.8674L130.507 39.8866H131.268V33.7494C131.268 32.8324 131.413 32.2955 131.787 31.8351L131.863 31.7394H129.58L129.656 31.8389ZM100.657 31.7461H97.5877L97.663 31.8418C98.0127 32.2744 98.1792 32.6936 98.1792 33.9111V38.1953C98.1792 39.0462 97.8779 39.6463 97.6742 39.7841L97.5217 39.8875H100.656C101.762 39.8875 102.851 39.5047 103.644 38.8433C104.548 38.0852 105.026 37.0247 105.026 35.7804C105.027 33.0076 102.765 31.7461 100.657 31.7461ZM100.657 38.9141H99.7267V32.7156H100.657C101.959 32.7156 103.479 33.5168 103.479 35.7785C103.479 37.9407 102.062 38.9141 100.657 38.9141ZM114.39 31.6685C113.229 31.6685 112.148 32.0638 111.344 32.7826C110.477 33.5579 110.019 34.6194 110.019 35.8532C110.019 38.5513 112.141 39.9622 114.237 39.9622C116.769 39.9622 118.608 38.202 118.608 35.7756C118.604 33.0794 116.482 31.6685 114.39 31.6685ZM114.314 38.9141C112.741 38.9141 111.643 37.6555 111.643 35.8512C111.643 33.9456 112.691 32.7137 114.314 32.7137C116.011 32.7137 116.984 33.8288 116.984 35.7766C116.98 37.6823 115.932 38.9141 114.31 38.9141H114.314ZM90.1477 31.8379C90.5253 32.3041 90.6657 32.8659 90.6657 33.9073V37.2621L85.9925 31.7652L85.9766 31.7461H83.8934L84.0255 31.8475C84.6235 32.3089 84.8365 32.7673 84.8365 33.5953V38.269C84.8406 38.5499 84.7904 38.8288 84.6889 39.0896C84.5873 39.3503 84.4364 39.5877 84.245 39.788L84.152 39.8837H86.463L86.37 39.788C86.0287 39.4367 85.8548 38.9265 85.8548 38.269V33.825L90.9094 39.8655L90.9252 39.8856H91.685V33.9073C91.685 32.8496 91.8208 32.3079 92.203 31.8389L92.2783 31.7432H90.0733L90.1477 31.8379Z" fill="#1C1C1C"/>
</g>
<defs>
<clipPath id="clip0_3_85">
<rect width="186" height="40" fill="white"/>
</clipPath>
</defs>
</svg>
