<svg width="658" height="799" viewBox="0 0 658 799" fill="none" xmlns="http://www.w3.org/2000/svg">
<mask id="mask0_95_44" style="mask-type:alpha" maskUnits="userSpaceOnUse" x="0" y="0" width="658" height="799">
<rect width="658" height="799" fill="#031546"/>
</mask>
<g mask="url(#mask0_95_44)">
<path d="M247.09 430.525C247.09 430.525 247.143 430.519 247.157 430.526C247.283 430.543 247.384 430.545 247.505 430.508C247.546 430.496 247.586 430.484 247.626 430.471C247.735 430.427 247.83 430.376 247.926 430.292C247.94 430.265 247.973 430.266 248 430.247C248 430.247 248.007 430.234 248.014 430.22C248.014 430.22 248.021 430.207 248.028 430.194C248.118 430.089 248.175 429.95 248.225 429.824C248.239 429.798 248.22 429.771 248.234 429.744C248.251 429.617 248.247 429.497 248.223 429.383C248.217 429.362 248.231 429.336 248.225 429.316C243.358 413.13 237.831 394.778 227.633 382.397C220.614 373.878 211.187 371.501 203.608 369.6C201.009 368.944 198.542 368.326 196.442 367.529C196.429 367.522 196.409 367.528 196.395 367.521C195.229 364.747 194.219 362.412 193.274 360.655C193.573 360.73 193.866 360.817 194.165 360.892C211.321 365.301 229.314 366.834 246.776 366.627C249.286 374.608 258.684 398.004 272.934 407.679C280.325 412.701 287.179 415.962 293.796 419.096C300.961 422.506 307.736 425.725 313.716 430.69C313.802 430.753 313.874 430.808 313.98 430.831L314.007 430.845C314.099 430.894 314.199 430.897 314.3 430.899C314.333 430.9 314.367 430.901 314.407 430.889C314.494 430.884 314.575 430.859 314.656 430.835C314.676 430.829 314.697 430.822 314.717 430.816C314.717 430.816 314.731 430.79 314.744 430.797C314.751 430.784 314.784 430.785 314.805 430.778C314.812 430.765 314.826 430.739 314.853 430.719C314.982 430.636 315.072 430.531 315.156 430.406C315.17 430.38 315.184 430.353 315.198 430.327C315.275 430.181 315.293 430.021 315.271 429.84C315.271 429.84 315.285 429.814 315.279 429.793L315.137 428.786C313.756 419.067 311.667 404.378 292.99 383.259C283.928 373.008 271.318 368.241 261.64 366.018C276.137 365.079 289.945 363.111 302.21 360.797C304.596 361.915 306.939 362.926 309.211 363.814C309.254 363.955 309.331 364.098 309.442 364.208C309.539 364.311 320.076 374.211 342.047 379.761C354.492 382.899 365.943 382.523 373.36 381.643C382.474 380.566 390.626 378.179 395.738 375.071C395.745 375.058 395.759 375.031 395.779 375.025C395.854 374.98 395.902 374.921 395.958 374.849C395.979 374.809 396.026 374.784 396.047 374.744C396.09 374.665 396.125 374.599 396.141 374.506C396.162 374.466 396.176 374.44 396.197 374.4C396.197 374.4 396.197 374.4 396.204 374.387C396.204 374.387 396.211 374.374 396.218 374.361C396.221 374.26 396.203 374.166 396.185 374.072C396.179 374.052 396.18 374.018 396.174 373.998C396.137 373.877 396.066 373.754 395.982 373.658C376.298 351.089 330.287 358.158 310.833 362.423C309.064 361.735 307.276 361.02 305.444 360.197C308.356 359.629 311.182 359.033 313.874 358.433C334.251 353.93 353.166 348.039 368.803 342.096C373.19 341.399 380.325 341.843 383.144 343.582C383.289 343.66 383.604 343.895 384.004 344.193C386.146 345.741 391.171 349.35 398.228 352.803C398.611 353.007 399.034 353.199 399.45 353.404C406.168 356.762 417.424 362.384 439.928 358.472C464.582 354.18 476.461 342.218 483.558 335.066C485.757 332.847 487.501 331.099 488.851 330.411C488.851 330.411 488.865 330.384 488.885 330.378C488.925 330.366 488.947 330.326 488.994 330.3C489.049 330.262 489.11 330.21 489.159 330.151C489.18 330.111 489.201 330.072 489.215 330.045C489.25 329.979 489.278 329.926 489.313 329.86C489.334 329.821 489.355 329.781 489.343 329.741C489.352 329.661 489.361 329.58 489.349 329.507C489.35 329.473 489.364 329.447 489.358 329.426C489.358 329.426 489.345 329.419 489.352 329.406C489.352 329.406 489.359 329.393 489.353 329.373C489.335 329.279 489.297 329.191 489.239 329.109C489.239 329.109 489.239 329.109 489.233 329.089C489.169 328.987 489.09 328.911 489.005 328.849C488.978 328.835 488.939 328.813 488.912 328.799C488.846 328.764 488.78 328.729 488.714 328.694C488.675 328.673 488.634 328.685 488.595 328.664C488.555 328.643 488.509 328.635 488.475 328.634C484.771 328.526 480.588 327.535 475.719 326.399C464.333 323.724 450.161 320.396 430.612 324.933C421.006 327.155 412.287 331.054 404.577 334.489C396.799 337.957 390.063 340.963 383.865 341.814C381.701 340.627 378.064 340.012 374.473 339.913C385.386 335.522 394.397 331.203 400.69 327.47C400.697 327.457 400.704 327.444 400.724 327.437C410.048 325.522 443.263 315.434 457.543 295.497C464.686 285.521 469.494 276.082 474.12 266.952C479.168 257.03 483.92 247.663 490.931 239.685C490.98 239.626 491.015 239.56 491.05 239.494C491.057 239.481 491.064 239.468 491.071 239.455C491.12 239.362 491.143 239.256 491.153 239.142C491.167 239.116 491.154 239.075 491.148 239.055C491.144 238.968 491.139 238.881 491.115 238.8C491.122 238.787 491.116 238.767 491.109 238.746C491.109 238.746 491.083 238.732 491.09 238.719C491.077 238.712 491.078 238.679 491.072 238.658C491.065 238.638 491.032 238.637 491.02 238.597C490.949 238.475 490.851 238.372 490.74 238.295C490.713 238.281 490.687 238.267 490.647 238.246C490.502 238.169 490.356 238.125 490.182 238.134L490.155 238.12C489.512 238.15 488.869 238.18 488.2 238.196C475.434 238.685 456.138 239.407 432.964 263.252C424.371 272.099 417.543 282.818 412.529 292.232C410.665 295.731 409.054 299.043 407.692 302.012C402.337 313.72 399.34 323.547 399.009 326.236C395.198 328.46 390.479 330.862 384.954 333.376C408.301 300.997 405.858 264.543 401.675 232.788C401.625 232.406 401.339 232.084 400.967 231.987C400.595 231.891 400.196 232.034 399.96 232.349C398.844 233.873 397.573 235.4 396.233 237.025C393.014 240.904 389.416 245.242 386.125 251.421C382.594 258.049 379.416 266.815 377.431 279.419C358.979 284.472 344.551 292.313 332.656 303.605C327.587 308.413 323.501 314.525 320.132 320.85C315.821 328.944 312.712 337.39 310.287 343.946C310.071 344.543 309.849 345.119 309.647 345.689C309.555 345.861 309.437 346.019 309.353 346.177C305.826 351.909 303.025 356.434 300.823 358.787C300.755 358.852 300.72 358.918 300.677 358.997L300.663 359.024C300.649 359.05 300.642 359.063 300.648 359.083C300.627 359.123 300.613 359.149 300.605 359.196C291.979 360.788 282.635 362.201 272.834 363.201C276.813 361.201 280.153 358.048 283.02 354.066C291.069 351.235 297.108 346.706 301.418 340.205C305.004 334.809 307.404 328.139 308.96 319.238C310.022 313.108 310.387 306.76 310.739 300.626C310.842 298.715 310.96 296.743 311.091 294.813C311.425 289.889 311.95 284.101 313.267 278.446C313.267 278.446 313.267 278.446 313.274 278.433C313.289 278.373 313.284 278.32 313.286 278.253C313.287 278.186 313.282 278.132 313.284 278.065C313.291 278.052 313.271 278.025 313.272 277.991C313.26 277.951 313.241 277.924 313.235 277.903C313.216 277.843 313.184 277.775 313.146 277.72C313.146 277.72 313.126 277.693 313.133 277.68C313.107 277.666 313.08 277.652 313.068 277.611C313.055 277.604 313.056 277.571 313.029 277.557C313.016 277.55 313.003 277.543 312.977 277.529C312.95 277.515 312.951 277.481 312.925 277.467C312.911 277.46 312.898 277.453 312.885 277.446C312.819 277.411 312.766 277.383 312.713 277.355C312.7 277.348 312.674 277.333 312.661 277.326C312.647 277.319 312.621 277.305 312.608 277.298C312.595 277.291 312.581 277.284 312.561 277.29C312.501 277.276 312.448 277.281 312.381 277.279C312.314 277.277 312.26 277.283 312.207 277.288C312.207 277.288 312.173 277.287 312.153 277.293C299.551 280.496 289.086 286.94 281.855 295.936C279.96 298.283 278.309 300.81 276.917 303.424C274.146 308.627 272.443 314.177 272.087 319.395C271.556 327.231 274.384 333.822 277.096 340.182C278.939 344.486 280.653 348.552 281.455 352.996C278.055 357.693 273.991 361.156 268.965 362.733C268.56 362.857 268.317 363.218 268.306 363.62C263.384 364.049 258.364 364.375 253.274 364.545C249.705 364.119 247.451 364.088 247.364 364.092C247.069 364.105 246.804 364.252 246.631 364.482C246.61 364.521 246.589 364.561 246.568 364.6C246.547 364.64 246.546 364.673 246.532 364.7C234.572 364.821 222.351 364.126 210.35 362.225C212.359 359.566 214.332 357.261 216.339 355.211C216.73 355.114 217.248 355 217.901 354.856C222.383 353.854 231.691 351.778 240.638 347.356C251.909 341.784 258.549 334.472 260.378 325.599C260.407 325.479 260.404 325.358 260.374 325.224C260.369 325.17 260.336 325.136 260.324 325.095C260.305 325.035 260.294 324.961 260.242 324.899C260.242 324.899 260.229 324.892 260.215 324.885C260.215 324.885 260.202 324.878 260.196 324.858C260.163 324.824 260.124 324.803 260.091 324.768C260.039 324.707 259.98 324.658 259.914 324.623C259.875 324.602 259.822 324.574 259.782 324.553C259.716 324.518 259.643 324.496 259.563 324.487C259.55 324.48 259.524 324.466 259.51 324.459C250.214 323.778 238.035 324.342 226.353 334.883C222.346 338.495 219.819 342.03 218.194 345.08C216.33 348.579 215.64 351.466 215.235 353.148C215.182 353.375 215.131 353.567 215.079 353.76C212.763 356.103 210.507 358.749 208.191 361.888C203.654 361.116 199.142 360.17 194.695 359.038C186.612 356.97 177.267 353.485 169.696 349.757C169.643 349.729 169.589 349.734 169.536 349.706L168.836 349.678C168.836 349.678 168.23 349.344 167.944 350.124C167.762 350.621 167.915 351.209 168.39 351.462L170.62 352.354C170.62 352.354 170.692 352.343 170.759 352.374C176.979 355.298 184.129 358.004 190.77 359.948C190.789 360.009 190.787 360.076 190.826 360.13C192.173 362.119 193.734 365.9 195.711 370.682C195.831 371.22 195.951 371.759 196.07 372.331C198.271 382.419 201.624 397.663 208.827 407.11C218.01 419.137 230.183 426.57 247.157 430.526L247.09 430.525ZM342.495 377.966C329.08 374.583 319.455 369.27 314.367 365.746C328.994 370.639 342.282 371.463 360.28 372.541C369.372 373.095 379.634 373.714 391.974 374.948C382.094 379.499 362.318 382.966 342.495 377.966ZM347.989 359.824C368.576 359.637 383.609 364.119 392.751 373.107C380.104 371.845 369.656 371.195 360.396 370.636C341.63 369.505 328.703 368.705 314.179 363.68C326.167 361.218 337.522 359.91 347.989 359.824ZM405.308 336.235C412.93 332.837 421.561 328.976 430.992 326.796C450.109 322.369 464.043 325.638 475.236 328.261C477.212 328.72 479.06 329.162 480.838 329.515C478.182 329.762 475.393 329.971 472.53 330.192C463.995 330.85 454.334 331.585 444.287 333.522C443.985 333.581 443.752 333.763 443.619 334.013C443.52 334.198 443.488 334.418 443.522 334.64C443.623 335.151 444.116 335.498 444.634 335.385C454.566 333.472 464.181 332.728 472.655 332.089C476.986 331.752 481.136 331.437 484.968 330.987C484.132 331.762 483.218 332.682 482.167 333.732C475.228 340.715 463.624 352.415 439.568 356.602C417.676 360.417 407.2 355.175 400.27 351.705C399.848 351.48 399.425 351.288 399.035 351.097C395.434 349.332 392.383 347.52 389.98 345.986C402.026 349.809 414.705 348.529 431.463 345.031C431.975 344.93 432.316 344.417 432.202 343.899C432.101 343.388 431.588 343.047 431.07 343.16C413.135 346.896 400.023 348.065 387.387 343.029C392.894 341.725 398.729 339.137 405.295 336.194L405.308 336.235ZM309.126 294.715C308.989 296.659 308.884 298.638 308.768 300.542C308.423 306.629 308.059 312.911 307.02 318.934C305.519 327.575 303.218 333.994 299.778 339.179C296.144 344.633 291.224 348.622 284.797 351.335C290.739 341.737 294.587 328.532 298.368 315.58C301.812 303.769 305.352 291.62 310.41 282.857C309.733 287.022 309.373 291.101 309.126 294.715ZM278.747 339.468C276.117 333.304 273.391 326.937 273.883 319.555C274.384 312.092 277.793 303.942 283.235 297.162C289.132 289.812 297.313 284.22 307.117 280.798C302.623 284.082 296.628 288.72 291.421 294.455C291.373 294.514 291.317 294.586 291.282 294.652C291.085 295.022 291.153 295.499 291.48 295.808C291.865 296.166 292.475 296.135 292.82 295.742C298.109 289.915 304.3 285.196 308.774 281.951C308.465 282.499 308.13 283.032 307.828 283.6C303.151 292.38 299.809 303.872 296.549 315.051C292.994 327.26 289.367 339.701 284.015 348.952C283.976 346.321 283.51 343.124 282.963 339.443C282.269 334.734 281.463 329.406 281.422 324.011C281.416 323.482 280.992 323.07 280.47 323.063C280.108 323.074 279.802 323.267 279.64 323.571C279.57 323.703 279.519 323.862 279.535 324.023C279.586 329.559 280.39 334.953 281.103 339.723C281.564 342.833 281.992 345.688 282.118 348.061C281.184 345.105 279.986 342.264 278.794 339.476L278.747 339.468ZM364.82 341.365C364.678 341.441 364.581 341.559 364.504 341.705C349.689 347.153 332.161 352.478 313.419 356.614C310.209 357.328 306.838 358.024 303.348 358.691C305.098 356.487 307.121 353.327 309.474 349.513C309.574 349.515 309.681 349.538 309.782 349.507C312.998 348.559 316.684 347.811 320.585 347.041C331.805 344.78 345.755 341.973 356.829 332.159C364.56 325.31 370.881 316.88 376.346 307.892C377.466 319.659 379.898 330.938 381.434 334.926C377.373 336.695 372.937 338.502 368.213 340.308C366.795 340.552 365.588 340.909 364.813 341.378L364.82 341.365ZM384.997 292.161C384.817 295.234 384.649 298.349 384.478 301.597C383.983 311.147 383.488 320.985 382.169 330.842C380.651 325.101 378.779 314.968 378.024 305.091C380.51 300.839 382.816 296.508 384.997 292.161ZM472.376 266.091C467.765 275.161 463.005 284.541 455.946 294.392C451.912 300.023 443.545 308.414 426.645 316.379C417.093 320.885 408.257 323.636 402.882 324.977C409.947 314.705 420.417 306.468 429.699 299.191C438.469 292.303 446.753 285.817 450.913 278.643C451.173 278.188 451.027 277.602 450.572 277.342C450.117 277.083 449.531 277.229 449.272 277.684C445.301 284.535 437.153 290.924 428.533 297.689C426.649 299.16 424.722 300.676 422.788 302.239C444.525 271.579 468.238 252.226 478.207 246.044C481.267 244.148 484.239 242.578 487.075 241.326C481.201 248.791 476.901 257.213 472.383 266.078L472.376 266.091ZM409.378 302.792C414.343 291.944 422.692 276.492 434.282 264.564C455.015 243.233 472.541 240.839 484.928 240.234C482.422 241.408 479.837 242.793 477.178 244.445C466.631 250.98 454.553 261.598 442.278 275.162C433.241 285.129 423.936 296.935 417.359 306.738C411.522 311.747 405.905 317.298 401.492 323.643C402.6 319.589 405.179 312.013 409.392 302.799L409.378 302.792ZM397.653 238.239C398.489 237.244 399.277 236.274 400.037 235.323C403.739 264.227 405.531 296.844 387.289 326.383C392.8 312.538 400.469 288.182 398.079 264.196C398.019 263.672 397.56 263.292 397.044 263.339C396.722 263.371 396.449 263.565 396.302 263.842C396.217 264.001 396.172 264.18 396.201 264.382C398.716 289.722 389.824 315.547 384.37 328.523C385.467 319.463 385.928 310.454 386.383 301.679C386.626 296.927 386.857 292.423 387.179 287.967C387.181 287.9 387.163 287.84 387.164 287.773C388.832 284.356 390.432 280.971 391.996 277.651C392.01 277.625 392.004 277.605 392.011 277.591C392.061 277.466 392.078 277.339 392.081 277.205C392.088 277.192 392.089 277.158 392.083 277.138C392.066 277.011 392.023 276.869 391.946 276.76C391.933 276.753 391.906 276.739 391.9 276.719C391.9 276.719 391.894 276.698 391.888 276.678C391.861 276.664 391.835 276.65 391.822 276.643C391.737 276.547 391.639 276.478 391.533 276.421C391.493 276.4 391.467 276.386 391.427 276.365C391.281 276.321 391.128 276.291 390.973 276.327C390.073 276.491 389.191 276.682 388.296 276.867C389.627 266.575 391.804 258.701 395.096 252.234C395.343 251.772 395.143 251.191 394.674 250.958C394.212 250.712 393.652 250.905 393.406 251.367L393.399 251.381C389.924 258.191 387.683 266.438 386.319 277.271C383.95 277.773 381.667 278.336 379.431 278.908C383.264 255.678 391.236 246.025 397.68 238.254L397.653 238.239ZM333.919 304.989C347.329 292.25 364.097 283.995 386.376 279.2C382.726 281.629 378.461 284.611 374.252 287.709C364.478 294.893 354.951 304.633 345.748 314.053C339.494 320.45 333.576 326.502 327.687 331.704C327.598 331.776 327.528 331.874 327.479 331.967C327.296 332.31 327.339 332.74 327.598 333.047C327.95 333.438 328.551 333.487 328.941 333.135C334.885 327.894 340.817 321.816 347.105 315.386C356.267 306.012 365.732 296.324 375.37 289.237C380.124 285.752 384.928 282.395 388.828 279.845C380.376 297.717 370.648 317.349 355.561 330.721C344.871 340.197 331.755 342.838 320.199 345.157C316.97 345.811 313.876 346.434 311.047 347.164C311.119 346.965 311.205 346.74 311.284 346.528C317.04 337.186 324.859 324.639 335.052 313.932C335.41 313.546 335.405 312.951 335.02 312.593C334.634 312.235 334.039 312.24 333.681 312.625C326.039 320.64 319.751 329.647 314.647 337.607C318.848 326.793 324.802 313.642 333.926 304.976L333.919 304.989ZM239.684 345.679C231.842 349.553 223.686 351.599 218.907 352.681C224.744 347.417 231.173 343.62 239.815 338.528C245 335.476 250.85 332.033 257.791 327.56C255.442 334.801 249.37 340.889 239.684 345.679ZM227.521 336.319C237.496 327.326 247.889 325.947 256.354 326.218C249.604 330.555 243.91 333.896 238.841 336.891C230.076 342.053 223.552 345.9 217.605 351.275C218.661 347.735 221.053 342.162 227.521 336.319ZM273.984 406.12C261.175 397.432 252.392 377.144 249.216 368.028C256.422 372.951 262.631 380.224 268.137 386.716C273.545 393.106 278.668 399.14 283.933 402.012C284.395 402.258 284.975 402.093 285.221 401.63C285.467 401.168 285.295 400.602 284.84 400.342C279.878 397.632 274.872 391.728 269.574 385.482C268.879 384.654 268.158 383.813 267.437 382.971C279.543 391.453 298.065 406.404 308.279 421.302C309.555 423.168 310.665 424.997 311.623 426.762C306.334 423.012 300.597 420.261 294.575 417.41C288.018 414.29 281.243 411.071 273.964 406.126L273.984 406.12ZM291.531 384.567C307.03 402.077 310.863 415.051 312.488 424.375C311.687 423.016 310.833 421.629 309.865 420.232C297.576 402.296 273.537 384.372 262.497 377.357C258.82 373.381 254.843 369.584 250.465 366.574C251.362 366.544 252.266 366.534 253.15 366.496C262.234 367.606 279.9 371.439 291.524 384.58L291.531 384.567ZM210.262 405.942C205.11 399.198 201.983 389.226 199.814 380.478C202.547 386.577 205.894 393.208 210.046 399.284C210.343 399.714 210.942 399.829 211.371 399.533C211.801 399.236 211.917 398.636 211.62 398.207C205.231 388.855 200.734 378.019 197.453 370.084C197.442 370.011 197.417 369.93 197.406 369.856C199.184 370.43 201.125 370.922 203.146 371.422C210.824 373.359 219.533 375.557 226.163 383.597C235.479 394.899 240.851 411.506 245.455 426.722C243.094 424.633 240.304 422.012 237.564 419.298C231.451 413.245 225.604 404.944 219.957 396.902C216.072 391.375 212.407 386.168 208.676 381.656C208.345 381.259 207.738 381.19 207.334 381.534C207.238 381.619 207.156 381.71 207.099 381.816C206.924 382.146 206.953 382.568 207.199 382.869C210.878 387.32 214.538 392.507 218.39 398C224.089 406.103 229.981 414.479 236.218 420.649C238.769 423.177 241.369 425.613 243.625 427.645C229.136 423.605 218.456 416.646 210.282 405.936L210.262 405.942Z" fill="#7E7E7E"/>
<path d="M168.386 550.279C168.386 550.279 168.448 550.334 168.454 550.356C168.569 550.517 168.672 550.632 168.841 550.73C168.898 550.763 168.954 550.795 169.01 550.828C169.174 550.903 169.332 550.957 169.528 550.976C169.572 550.964 169.606 551.002 169.657 551.013C169.657 551.013 169.679 551.007 169.701 551.001C169.701 551.001 169.724 550.995 169.746 550.989C169.958 550.98 170.175 550.898 170.37 550.822C170.414 550.81 170.425 550.759 170.469 550.747C170.629 550.633 170.762 550.502 170.865 550.355C170.882 550.326 170.926 550.315 170.942 550.286C184.058 527.772 198.918 502.236 202.137 477.719C204.35 460.847 197.109 447.726 191.277 437.186C189.281 433.568 187.383 430.138 186.07 426.933C186.064 426.911 186.036 426.895 186.03 426.872C187.928 422.64 189.496 419.046 190.482 416.132C190.713 416.547 190.921 416.969 191.152 417.384C204.235 441.353 221.44 463.238 240.047 482.694C233.696 493.92 217.225 529.125 221.318 555.359C223.437 568.969 226.974 580.123 230.405 590.876C234.102 602.536 237.604 613.557 238.302 625.519C238.322 625.681 238.335 625.821 238.422 625.964L238.434 626.009C238.475 626.165 238.578 626.281 238.681 626.396C238.715 626.435 238.749 626.474 238.806 626.506C238.902 626.6 239.015 626.665 239.128 626.73C239.157 626.746 239.185 626.763 239.213 626.779C239.213 626.779 239.258 626.767 239.264 626.789C239.286 626.783 239.32 626.822 239.348 626.838C239.37 626.832 239.415 626.82 239.466 626.831C239.696 626.888 239.908 626.879 240.137 626.842C240.182 626.83 240.226 626.818 240.271 626.806C240.516 626.74 240.715 626.591 240.896 626.376C240.896 626.376 240.94 626.364 240.957 626.336L241.943 625.116C251.44 613.334 265.792 595.525 269.933 552.262C271.948 531.266 264.051 512.043 256.372 498.8C272.684 514.145 289.429 527.632 304.942 539.014C306.193 542.88 307.519 546.583 308.909 550.077C308.795 550.275 308.715 550.511 308.708 550.752C308.695 550.97 308.627 573.259 325.491 603.852C335.05 621.174 347.522 633.681 356.317 641.111C367.121 650.246 378.388 656.918 387.268 659.408C387.29 659.402 387.335 659.39 387.363 659.407C387.492 659.444 387.61 659.436 387.749 659.422C387.816 659.405 387.895 659.431 387.962 659.413C388.095 659.377 388.207 659.348 388.328 659.267C388.395 659.249 388.44 659.237 388.507 659.22C388.507 659.22 388.507 659.22 388.529 659.214C388.529 659.214 388.551 659.208 388.573 659.202C388.689 659.099 388.777 658.98 388.864 658.861C388.881 658.833 388.919 658.799 388.935 658.77C389.033 658.601 389.097 658.393 389.116 658.197C393.834 612.273 337.457 567.873 312.182 550.441C311.096 547.725 310.02 544.958 309.02 542.027C312.724 544.711 316.369 547.267 319.878 549.668C346.391 567.89 372.931 583.001 396.079 594.366C401.48 598.576 408.487 607.082 409.494 612.087C409.559 612.332 409.626 612.935 409.711 613.7C410.221 617.74 411.442 627.199 414.976 638.784C415.149 639.43 415.379 640.108 415.586 640.793C418.871 651.895 424.38 670.493 452.465 691.73C483.242 714.991 509.217 715.789 524.742 716.26C529.556 716.402 533.362 716.528 535.557 717.324C535.557 717.324 535.601 717.312 535.629 717.329C535.686 717.361 535.753 717.343 535.832 717.37C535.933 717.391 536.056 717.405 536.173 717.398C536.24 717.38 536.307 717.362 536.351 717.35C536.463 717.32 536.552 717.296 536.663 717.266C536.73 717.249 536.797 717.231 536.83 717.174C536.929 717.1 537.028 717.025 537.1 716.935C537.138 716.901 537.183 716.889 537.199 716.86C537.199 716.86 537.193 716.838 537.215 716.832C537.215 716.832 537.238 716.826 537.254 716.798C537.341 716.679 537.401 716.544 537.432 716.392C537.432 716.392 537.432 716.392 537.448 716.364C537.495 716.184 537.498 716.016 537.479 715.855C537.467 715.81 537.449 715.743 537.437 715.699C537.407 715.587 537.377 715.476 537.347 715.365C537.329 715.298 537.273 715.265 537.255 715.198C537.237 715.132 537.197 715.071 537.163 715.032C533.388 710.745 530.103 704.989 526.259 698.309C517.293 682.666 506.131 663.196 480.451 645.945C467.839 637.461 454.273 631.739 442.29 626.668C430.199 621.553 419.726 617.127 412.245 611.04C411.305 607.353 408.171 602.607 404.505 598.458C420.934 606.133 435.282 611.741 446.109 614.903C446.131 614.897 446.154 614.891 446.182 614.907C458.15 623.397 504.464 650.204 541.952 645.315C560.706 642.868 576.4 638.352 591.553 633.958C608.043 629.205 623.597 624.703 639.962 624.209C640.08 624.202 640.191 624.172 640.303 624.142C640.325 624.136 640.347 624.13 640.369 624.124C640.525 624.082 640.669 623.996 640.807 623.887C640.852 623.875 640.885 623.819 640.901 623.791C640.994 623.694 641.088 623.597 641.153 623.484C641.175 623.478 641.192 623.45 641.208 623.422C641.208 623.422 641.196 623.377 641.218 623.371C641.212 623.349 641.251 623.315 641.267 623.287C641.283 623.258 641.249 623.22 641.282 623.163C641.345 622.955 641.359 622.737 641.327 622.531C641.315 622.486 641.303 622.442 641.285 622.375C641.22 622.13 641.116 621.919 640.922 621.732L640.91 621.688C640.199 620.995 639.489 620.302 638.766 619.565C624.783 605.696 603.667 584.716 552.42 583.696C533.411 583.323 514.149 586.909 498.266 591.165C492.363 592.747 486.937 594.415 482.159 596.006C463.334 602.291 449.108 609.254 445.731 611.71C439.215 609.757 431.543 606.967 422.897 603.388C483.942 595.624 522.445 554.515 553.82 516.391C554.198 515.931 554.26 515.27 553.977 514.75C553.694 514.229 553.113 513.931 552.51 513.997C549.618 514.342 546.561 514.517 543.32 514.717C535.563 515.172 526.89 515.682 516.465 518.476C505.282 521.472 492.063 527.114 475.773 538.139C450.666 522.668 426.651 514.662 401.413 513.141C390.662 512.489 379.476 514.317 368.806 517.176C355.151 520.835 342.364 526.218 332.426 530.385C331.526 530.769 330.643 531.125 329.788 531.498C329.498 531.575 329.197 531.608 328.929 531.68C318.76 533.737 310.715 535.343 305.748 535.338C305.602 535.329 305.491 535.359 305.357 535.394L305.312 535.406C305.268 535.418 305.246 535.424 305.229 535.453C305.162 535.47 305.118 535.482 305.057 535.523C294.187 527.479 282.764 518.438 271.324 508.447C277.764 510.827 284.831 511.272 292.333 510.312C303.992 516.402 315.45 518.44 327.309 516.456C337.161 514.819 347.202 510.505 358.867 502.892C366.89 497.639 374.426 491.371 381.709 485.314C383.971 483.419 386.315 481.478 388.628 479.593C394.527 474.79 401.601 469.291 409.358 464.825C409.358 464.825 409.358 464.825 409.38 464.819C409.463 464.773 409.518 464.711 409.595 464.642C409.672 464.574 409.727 464.511 409.804 464.443C409.827 464.437 409.837 464.386 409.875 464.352C409.908 464.296 409.918 464.245 409.935 464.217C409.984 464.132 410.027 464.025 410.047 463.924C410.047 463.924 410.058 463.874 410.08 463.868C410.068 463.823 410.056 463.779 410.089 463.722C410.083 463.7 410.121 463.666 410.109 463.621C410.103 463.599 410.097 463.577 410.086 463.532C410.074 463.488 410.112 463.453 410.1 463.409C410.094 463.387 410.088 463.364 410.082 463.342C410.052 463.231 410.029 463.142 410.005 463.052C409.999 463.03 409.987 462.986 409.981 462.963C409.975 462.941 409.963 462.897 409.957 462.874C409.951 462.852 409.945 462.83 409.917 462.813C409.871 462.73 409.808 462.675 409.74 462.598C409.671 462.521 409.609 462.466 409.547 462.411C409.547 462.411 409.512 462.373 409.484 462.357C392.616 451.528 374.346 446.518 356.601 447.835C351.964 448.171 347.379 448.97 342.968 450.152C334.192 452.503 326.146 456.426 319.893 461.514C310.506 469.161 306.055 479.281 301.744 489.03C298.833 495.633 296.057 501.844 291.893 507.423C283.023 508.535 274.846 507.599 267.78 503.596C267.216 503.27 266.552 503.376 266.089 503.787C260.426 498.692 254.776 493.379 249.229 487.824C245.955 483.355 243.618 480.783 243.521 480.689C243.197 480.37 242.753 480.227 242.312 480.273C242.245 480.291 242.178 480.309 242.111 480.327C242.044 480.345 242.006 480.379 241.961 480.391C229.24 467.043 217.166 452.544 206.68 437.022C211.789 436.488 216.463 436.286 220.884 436.39C221.404 436.728 222.077 437.192 222.926 437.776C228.772 441.772 240.905 450.074 255.3 455.502C273.438 462.338 288.661 462.125 300.583 454.849C300.749 454.757 300.881 454.626 301.002 454.451C301.056 454.388 301.061 454.315 301.093 454.259C301.142 454.174 301.214 454.084 301.228 453.96C301.228 453.96 301.222 453.938 301.216 453.916C301.216 453.916 301.21 453.893 301.227 453.865C301.231 453.792 301.213 453.726 301.218 453.653C301.232 453.53 301.225 453.412 301.195 453.301C301.177 453.234 301.153 453.145 301.135 453.078C301.105 452.967 301.053 452.861 300.979 452.762C300.973 452.74 300.961 452.695 300.955 452.673C291.94 441.483 278.49 428.354 254.323 426.285C246.037 425.569 239.395 426.441 234.249 427.82C228.346 429.402 224.368 431.662 222.046 432.976C221.736 433.154 221.464 433.299 221.192 433.443C216.116 433.3 210.761 433.541 204.787 434.235C200.884 428.311 197.202 422.232 193.797 416.031C187.623 404.748 181.718 390.553 177.951 378.1C177.928 378.011 177.865 377.956 177.841 377.867L56.8589 -73.6455C56.4909 -77.2466 54.6755 -76.0918 54.6755 -76.0918C53.8958 -75.8829 53.4169 -75.0863 53.6317 -74.2845L175.736 381.414C175.802 381.659 175.95 381.858 176.121 382.051C179.373 392.136 183.846 403.039 188.643 412.567C188.594 412.651 188.517 412.72 188.497 412.821C187.673 416.431 185.056 422.169 181.749 429.428C181.268 430.129 180.788 430.831 180.269 431.567C171.219 444.661 157.572 464.478 154.507 482.533C150.619 505.535 155.052 527.07 168.454 550.356L168.386 550.279ZM327.985 602.467C317.681 583.794 313.54 567.359 312.157 557.919C322.035 579.548 335.088 595.384 352.811 616.797C361.752 627.624 371.853 639.836 383.447 655.038C367.923 648.695 343.21 630.063 327.985 602.467ZM354.206 589.57C376.078 612.567 386.846 634.22 386.338 653.977C374.452 638.4 364.191 625.944 355.078 614.924C336.607 592.59 323.908 577.184 314.287 555.534C329.674 566.449 343.096 577.867 354.206 589.57ZM441.092 629.328C452.941 634.34 466.372 640.003 478.751 648.334C503.855 665.214 514.832 684.352 523.654 699.723C525.215 702.432 526.662 704.98 528.134 707.355C525.062 704.621 521.891 701.699 518.63 698.706C508.909 689.782 497.916 679.671 485.162 670.39C484.777 670.111 484.328 670.041 483.905 670.154C483.593 670.238 483.311 670.432 483.098 670.704C482.628 671.356 482.755 672.276 483.428 672.74C496.034 681.918 506.988 691.968 516.624 700.843C521.561 705.368 526.283 709.712 530.822 713.556C529.069 713.429 527.071 713.368 524.782 713.289C509.614 712.818 484.222 712.055 454.193 689.358C426.861 668.706 421.743 651.388 418.363 639.929C418.172 639.217 417.942 638.538 417.747 637.898C415.947 631.984 414.778 626.64 413.978 622.319C422.345 639.912 437.129 652.851 458.703 668.051C459.354 668.521 460.291 668.366 460.755 667.692C461.225 667.041 461.07 666.104 460.396 665.64C437.317 649.363 422.204 635.821 414.582 616.285C421.846 621.118 430.9 624.969 441.125 629.271L441.092 629.328ZM386.67 477.277C384.336 479.168 381.997 481.131 379.729 483.004C372.507 489.021 365.048 495.221 357.169 500.387C345.853 507.787 336.201 511.949 326.74 513.529C316.771 515.174 307.099 513.827 297.28 509.44C314.347 506.037 333.273 496.478 351.845 487.11C368.774 478.564 386.186 469.769 401.382 466.246C395.977 469.866 391.002 473.753 386.67 477.277ZM304.285 490.139C308.462 480.689 312.768 470.919 321.603 463.706C330.537 456.419 343.307 451.684 356.671 450.681C371.158 449.592 386.066 452.925 400.237 460.371C391.808 458.762 380.276 456.888 368.335 457.056C368.218 457.063 368.078 457.077 367.967 457.107C367.343 457.274 366.877 457.852 366.872 458.546C366.875 459.357 367.551 460.011 368.356 459.986C380.487 459.815 392.318 461.824 400.681 463.45C399.739 463.679 398.786 463.863 397.828 464.119C383.014 468.089 366.551 476.415 350.525 484.504C333.03 493.345 315.197 502.348 299.142 506.053C302.066 503.241 305.178 499.352 308.75 494.862C313.325 489.125 318.479 482.612 324.514 476.889C325.104 476.326 325.122 475.414 324.58 474.819C324.188 474.423 323.648 474.281 323.136 474.418C322.913 474.478 322.68 474.588 322.516 474.775C316.332 480.657 311.1 487.239 306.476 493.06C303.458 496.853 300.691 500.339 298.151 502.977C300.498 498.816 302.439 494.476 304.325 490.2L304.285 490.139ZM392.713 589.11C392.476 589.03 392.242 589.045 391.997 589.111C370.27 578.152 345.828 564.007 321.448 547.243C317.266 544.377 312.935 541.312 308.512 538.082C312.836 537.735 318.525 536.688 325.298 535.326C325.401 535.442 325.487 535.586 325.629 535.668C330.081 538.294 334.803 541.659 339.774 545.244C354.127 555.505 371.968 568.269 394.676 570.419C410.527 571.924 426.675 570.175 442.552 566.876C430.473 580.519 420.325 595.126 417.448 601.052C411.182 598.339 404.479 595.242 397.474 591.82C395.706 590.48 394.034 589.496 392.69 589.116L392.713 589.11ZM469.378 560.07C465.726 563.101 462.041 566.189 458.201 569.414C446.921 578.905 435.315 588.698 422.822 597.584C427.693 589.834 437.139 577.062 447.473 565.82C454.88 564.146 462.186 562.188 469.378 560.07ZM590.688 631.087C575.618 635.435 560.042 639.943 541.516 642.353C530.927 643.734 512.67 643.136 485.914 632.475C470.788 626.455 458.39 619.394 451.225 614.75C470.23 611.901 490.527 615.031 508.492 617.832C525.48 620.465 541.504 622.974 553.965 620.113C554.75 619.926 555.257 619.146 555.071 618.36C554.884 617.575 554.104 617.068 553.318 617.254C541.421 619.989 525.649 617.531 508.958 614.938C505.318 614.362 501.583 613.788 497.787 613.253C555.202 605.483 601.956 611.836 619.411 616.564C624.766 618.017 629.661 619.713 634.056 621.591C619.465 622.827 605.453 626.844 590.711 631.081L590.688 631.087ZM483.055 598.726C500.5 592.906 526.693 586.054 552.328 586.561C598.175 587.476 619.312 604.703 633.028 618.023C629.069 616.434 624.788 614.98 620.129 613.722C601.669 608.715 576.998 606.279 548.801 606.721C528.063 607.026 504.97 608.965 487.006 611.869C475.22 610.564 463.056 610.076 451.265 611.779C456.998 608.763 468.247 603.696 483.06 598.748L483.055 598.726ZM543.446 517.595C545.447 517.489 547.369 517.355 549.241 517.212C520.57 551.795 485.708 588.133 433.233 598.661C454.63 590.302 490.141 573.315 514.65 545.385C515.177 544.767 515.122 543.85 514.526 543.318C514.151 542.989 513.646 542.885 513.178 543.011C512.911 543.082 512.662 543.221 512.464 543.465C486.561 572.962 448.11 590.115 427.751 597.623C439.113 589.328 449.748 580.368 460.113 571.647C465.723 566.921 471.04 562.441 476.399 558.117C476.477 558.048 476.525 557.964 476.603 557.895C482.207 556.179 487.704 554.419 493.09 552.69C493.135 552.678 493.151 552.65 493.173 552.644C493.368 552.568 493.528 552.453 493.683 552.316C493.705 552.31 493.743 552.276 493.76 552.248C493.886 552.095 494 551.897 494.041 551.695C494.035 551.673 494.024 551.628 494.04 551.6C494.04 551.6 494.056 551.572 494.072 551.543C494.06 551.499 494.049 551.454 494.043 551.432C494.062 551.236 494.036 551.052 493.988 550.874C493.971 550.807 493.959 550.762 493.941 550.696C493.837 550.485 493.71 550.28 493.506 550.144C492.373 549.301 491.23 548.51 490.081 547.696C503.076 538.366 514.239 532.534 524.989 529.439C525.769 529.23 526.213 528.395 525.982 527.621C525.773 526.842 524.966 526.414 524.187 526.623L524.164 526.629C512.835 529.879 501.185 536.032 487.545 545.893C484.488 543.752 481.451 541.773 478.454 539.855C508.66 519.731 527.922 518.556 543.458 517.64L543.446 517.595ZM401.182 516.02C429.645 517.726 456.588 527.931 485.432 547.987C478.855 546.431 471.007 544.763 463.089 543.28C444.71 539.826 423.714 539.342 403.417 538.885C389.628 538.569 376.583 538.269 364.525 537.108C364.352 537.083 364.167 537.109 364.011 537.151C363.432 537.306 362.993 537.805 362.92 538.422C362.849 539.228 363.426 539.957 364.233 540.027C376.392 541.209 389.481 541.497 403.343 541.817C423.545 542.275 444.418 542.745 462.544 546.147C471.472 547.837 480.309 549.718 487.285 551.429C458.257 560.711 425.901 570.407 394.962 567.478C373.038 565.404 356.262 553.405 341.49 542.827C337.357 539.877 333.399 537.046 329.6 534.627C329.9 534.499 330.244 534.359 330.566 534.225C347.147 530.88 369.511 526.487 392.299 526.707C393.11 526.704 393.776 526.072 393.773 525.261C393.771 524.45 393.139 523.784 392.328 523.787C375.258 523.611 358.493 526.002 344.155 528.627C360.759 521.982 381.84 514.853 401.204 516.014L401.182 516.02ZM256.186 452.662C243.57 447.903 232.684 440.867 226.437 436.621C238.509 437.659 249.55 440.906 264.381 445.287C273.275 447.916 283.31 450.885 295.652 453.998C285.023 458.971 271.774 458.535 256.186 452.662ZM253.934 429.11C274.561 430.887 287.051 441.146 295.651 450.967C283.663 447.926 273.908 445.025 265.2 442.465C250.162 438.021 238.964 434.72 226.65 433.676C231.749 431.14 240.545 427.971 253.934 429.11ZM224.18 554.902C220.49 531.329 234.107 500.087 241.036 486.917C243.071 500.216 241.409 514.863 239.888 527.898C238.38 540.714 236.972 552.835 239.276 561.789C239.485 562.569 240.281 563.048 241.061 562.839C241.841 562.63 242.297 561.839 242.111 561.054C239.944 552.611 241.329 540.759 242.791 528.218C242.993 526.565 243.182 524.867 243.372 523.169C246.553 545.733 249.197 582.332 243.158 609.514C242.399 612.916 241.506 616.091 240.526 619.027C239.185 609.123 236.248 599.765 233.125 589.98C229.741 579.31 226.239 568.29 224.151 554.886L224.18 554.902ZM266.925 551.994C263.504 587.879 252.92 605.849 244.125 617.49C244.813 615.158 245.478 612.736 246.033 610.176C253.311 577.458 248.211 531.516 244.5 511.696C245.11 503.369 245.203 494.894 243.987 486.794C244.966 487.773 245.928 488.78 246.901 489.737C255.209 501.141 269.478 525.077 266.903 552L266.925 551.994ZM157.333 482.921C159.511 470.021 167.454 456.006 175.029 444.357C171.032 453.854 167.084 464.603 164.607 475.673C164.435 476.459 164.935 477.256 165.721 477.427C166.507 477.599 167.305 477.099 167.476 476.313C171.291 459.274 178.768 442.806 184.255 430.761C184.326 430.671 184.391 430.558 184.463 430.467C185.687 433.075 187.175 435.779 188.738 438.583C194.634 449.272 201.321 461.396 199.239 477.326C196.308 499.713 183.249 523.239 170.951 544.436C170.819 539.578 170.837 533.677 171.012 527.735C171.399 514.479 174.6 499.157 177.719 484.333C179.858 474.141 181.868 464.532 183.026 455.581C183.125 454.79 182.564 454.034 181.752 453.941C181.555 453.922 181.365 453.925 181.187 453.973C180.63 454.122 180.185 454.6 180.105 455.194C178.961 464.022 176.968 473.602 174.833 483.722C171.699 498.669 168.462 514.12 168.074 527.639C167.909 533.173 167.9 538.665 167.984 543.345C157.291 522.771 153.895 503.416 157.361 482.938L157.333 482.921Z" fill="#7E7E7E"/>
</g>
</svg>
