<svg width="932" height="1380" viewBox="0 0 932 1380" fill="none" xmlns="http://www.w3.org/2000/svg">
<path d="M581.438 858.232C581.438 858.232 581.362 858.224 581.343 858.234C581.164 858.258 581.022 858.261 580.85 858.209C580.793 858.192 580.735 858.174 580.678 858.157C580.525 858.094 580.391 858.022 580.255 857.902C580.235 857.865 580.188 857.866 580.149 857.839C580.149 857.839 580.139 857.82 580.129 857.801C580.129 857.801 580.119 857.783 580.109 857.764C579.982 857.616 579.902 857.419 579.831 857.241C579.811 857.204 579.838 857.165 579.818 857.128C579.795 856.948 579.8 856.778 579.834 856.616C579.842 856.587 579.822 856.55 579.831 856.521C586.718 833.618 594.539 807.651 608.969 790.131C618.902 778.077 632.24 774.714 642.964 772.024C646.642 771.096 650.132 770.22 653.104 769.093C653.123 769.083 653.151 769.092 653.17 769.082C654.82 765.157 656.25 761.853 657.586 759.366C657.163 759.472 656.75 759.596 656.326 759.702C632.051 765.941 606.591 768.11 581.881 767.816C578.329 779.11 565.031 812.215 544.869 825.905C534.41 833.011 524.712 837.625 515.349 842.061C505.21 846.885 495.624 851.44 487.161 858.466C487.04 858.554 486.938 858.633 486.788 858.665L486.75 858.685C486.619 858.755 486.477 858.758 486.336 858.762C486.288 858.763 486.241 858.764 486.184 858.747C486.06 858.741 485.946 858.706 485.831 858.671C485.803 858.662 485.774 858.653 485.746 858.645C485.746 858.645 485.726 858.607 485.707 858.617C485.697 858.598 485.65 858.6 485.621 858.591C485.611 858.572 485.591 858.535 485.553 858.508C485.37 858.389 485.243 858.241 485.125 858.064C485.105 858.027 485.085 857.989 485.065 857.952C484.955 857.746 484.931 857.52 484.962 857.263C484.962 857.263 484.942 857.226 484.951 857.197L485.15 855.772C487.105 842.019 490.06 821.234 516.489 791.352C529.312 776.847 547.155 770.101 560.849 766.955C540.336 765.626 520.797 762.842 503.443 759.567C500.066 761.15 496.751 762.579 493.536 763.836C493.475 764.037 493.367 764.238 493.21 764.394C493.071 764.539 478.162 778.549 447.074 786.402C429.464 790.841 413.26 790.31 402.766 789.065C389.869 787.54 378.334 784.162 371.101 779.765C371.091 779.746 371.071 779.709 371.042 779.7C370.936 779.637 370.868 779.553 370.79 779.451C370.76 779.395 370.693 779.359 370.663 779.303C370.603 779.191 370.553 779.097 370.531 778.965C370.501 778.909 370.481 778.872 370.451 778.816C370.451 778.816 370.451 778.816 370.441 778.797C370.441 778.797 370.431 778.778 370.421 778.76C370.418 778.618 370.443 778.485 370.468 778.351C370.476 778.323 370.475 778.275 370.484 778.247C370.536 778.075 370.636 777.902 370.755 777.766C398.608 745.83 463.713 755.834 491.241 761.869C493.744 760.895 496.274 759.883 498.867 758.718C494.746 757.915 490.748 757.071 486.939 756.222C458.105 749.851 431.34 741.514 409.214 733.106C403.006 732.119 392.91 732.748 388.921 735.208C388.716 735.318 388.27 735.651 387.704 736.073C384.674 738.263 377.563 743.369 367.577 748.256C367.036 748.545 366.437 748.816 365.848 749.106C356.342 753.857 340.414 761.813 308.572 756.278C273.686 750.204 256.878 733.279 246.835 723.158C243.724 720.019 241.255 717.544 239.346 716.571C239.346 716.571 239.326 716.533 239.298 716.525C239.24 716.507 239.21 716.451 239.143 716.415C239.066 716.36 238.979 716.286 238.911 716.203C238.881 716.147 238.851 716.091 238.831 716.054C238.781 715.96 238.741 715.885 238.692 715.792C238.662 715.736 238.632 715.68 238.649 715.623C238.637 715.509 238.625 715.396 238.641 715.291C238.64 715.244 238.62 715.207 238.628 715.178C238.628 715.178 238.647 715.168 238.637 715.149C238.637 715.149 238.627 715.131 238.636 715.102C238.661 714.969 238.714 714.844 238.797 714.729C238.797 714.729 238.797 714.729 238.805 714.7C238.896 714.556 239.007 714.449 239.128 714.36C239.165 714.34 239.221 714.311 239.259 714.291C239.352 714.241 239.445 714.191 239.539 714.142C239.595 714.112 239.652 714.129 239.708 714.099C239.764 714.069 239.83 714.058 239.878 714.057C245.119 713.903 251.038 712.501 257.927 710.895C274.038 707.11 294.093 702.4 321.754 708.819C335.346 711.964 347.684 717.481 358.594 722.342C369.599 727.249 379.13 731.502 387.9 732.706C390.962 731.027 396.109 730.157 401.19 730.017C385.748 723.804 372.997 717.692 364.093 712.41C364.083 712.391 364.073 712.372 364.045 712.363C350.852 709.653 303.852 695.378 283.647 667.167C273.539 653.052 266.736 639.696 260.19 626.777C253.048 612.738 246.323 599.483 236.402 588.194C236.334 588.111 236.284 588.018 236.234 587.924C236.224 587.906 236.214 587.887 236.204 587.868C236.135 587.737 236.102 587.587 236.089 587.426C236.069 587.389 236.086 587.331 236.095 587.303C236.101 587.18 236.108 587.056 236.143 586.942C236.133 586.923 236.141 586.894 236.15 586.866C236.15 586.866 236.187 586.846 236.177 586.827C236.196 586.817 236.195 586.77 236.204 586.741C236.212 586.713 236.26 586.711 236.277 586.654C236.377 586.481 236.515 586.336 236.673 586.227C236.711 586.208 236.748 586.188 236.804 586.158C237.009 586.048 237.216 585.986 237.463 585.999L237.5 585.979C238.41 586.022 239.32 586.065 240.267 586.088C258.331 586.779 285.635 587.801 318.425 621.541C330.584 634.059 340.246 649.227 347.341 662.548C349.979 667.499 352.259 672.185 354.185 676.387C361.762 692.953 366.004 706.859 366.472 710.663C371.865 713.81 378.543 717.209 386.361 720.767C353.324 674.951 356.78 623.368 362.699 578.435C362.77 577.894 363.175 577.438 363.702 577.302C364.229 577.165 364.792 577.368 365.126 577.814C366.706 579.97 368.504 582.131 370.4 584.43C374.955 589.919 380.046 596.057 384.704 604.801C389.699 614.18 394.196 626.583 397.005 644.417C423.114 651.568 443.53 662.662 460.361 678.64C467.534 685.445 473.316 694.093 478.082 703.042C484.183 714.495 488.582 726.446 492.013 735.723C492.319 736.567 492.634 737.383 492.92 738.19C493.049 738.433 493.216 738.656 493.335 738.88C498.326 746.99 502.289 753.394 505.405 756.723C505.502 756.815 505.552 756.908 505.611 757.02L505.631 757.058C505.651 757.095 505.661 757.114 505.652 757.143C505.682 757.199 505.702 757.236 505.713 757.302C517.919 759.555 531.141 761.554 545.01 762.968C539.379 760.14 534.653 755.678 530.597 750.044C519.207 746.037 510.662 739.628 504.563 730.429C499.49 722.795 496.092 713.356 493.892 700.761C492.389 692.088 491.873 683.105 491.373 674.425C491.228 671.721 491.061 668.932 490.877 666.2C490.403 659.233 489.66 651.042 487.797 643.041C487.797 643.041 487.797 643.041 487.787 643.022C487.765 642.938 487.773 642.862 487.77 642.767C487.768 642.673 487.776 642.597 487.773 642.502C487.763 642.483 487.791 642.445 487.789 642.397C487.807 642.34 487.834 642.302 487.843 642.273C487.869 642.187 487.914 642.091 487.969 642.014C487.969 642.014 487.996 641.975 487.986 641.957C488.024 641.937 488.061 641.917 488.078 641.86C488.097 641.85 488.096 641.802 488.133 641.782C488.152 641.773 488.171 641.763 488.208 641.743C488.245 641.723 488.244 641.675 488.281 641.656C488.3 641.646 488.319 641.636 488.337 641.626C488.431 641.576 488.506 641.536 488.58 641.496C488.599 641.486 488.636 641.467 488.655 641.457C488.674 641.447 488.711 641.427 488.73 641.417C488.748 641.407 488.767 641.397 488.796 641.406C488.88 641.385 488.956 641.392 489.051 641.39C489.146 641.387 489.221 641.395 489.297 641.402C489.297 641.402 489.345 641.401 489.373 641.41C507.205 645.942 522.013 655.059 532.246 667.788C534.926 671.11 537.262 674.686 539.233 678.385C543.154 685.746 545.563 693.601 546.066 700.983C546.817 712.072 542.817 721.397 538.979 730.397C536.372 736.487 533.945 742.24 532.811 748.528C537.622 755.175 543.373 760.075 550.485 762.307C551.057 762.482 551.402 762.994 551.416 763.561C558.382 764.168 565.485 764.63 572.687 764.871C577.737 764.268 580.927 764.224 581.05 764.23C581.467 764.248 581.841 764.456 582.087 764.781C582.116 764.837 582.146 764.893 582.176 764.949C582.206 765.005 582.207 765.052 582.227 765.09C599.151 765.261 616.442 764.277 633.425 761.587C630.582 757.825 627.789 754.564 624.95 751.663C624.397 751.526 623.664 751.365 622.74 751.161C616.398 749.743 603.227 746.805 590.568 740.549C574.618 732.663 565.223 722.318 562.635 709.762C562.593 709.593 562.598 709.422 562.641 709.231C562.648 709.155 562.694 709.107 562.712 709.05C562.738 708.964 562.754 708.859 562.828 708.772C562.828 708.772 562.846 708.762 562.865 708.752C562.865 708.752 562.884 708.742 562.892 708.714C562.938 708.665 562.994 708.635 563.041 708.587C563.114 708.5 563.198 708.431 563.291 708.381C563.347 708.352 563.422 708.312 563.478 708.282C563.571 708.232 563.674 708.201 563.788 708.189C563.806 708.179 563.844 708.159 563.862 708.149C577.017 707.186 594.251 707.984 610.78 722.9C616.451 728.009 620.026 733.012 622.325 737.328C624.962 742.279 625.939 746.363 626.512 748.745C626.587 749.065 626.66 749.337 626.733 749.61C630.01 752.925 633.203 756.669 636.48 761.111C642.899 760.018 649.284 758.68 655.577 757.079C667.014 754.153 680.236 749.22 690.95 743.945C691.025 743.906 691.101 743.913 691.176 743.873L692.167 743.834C692.167 743.834 693.025 743.362 693.429 744.465C693.686 745.168 693.47 746 692.798 746.359L689.642 747.621C689.642 747.621 689.54 747.605 689.446 747.649C680.644 751.786 670.527 755.615 661.13 758.366C661.104 758.452 661.106 758.547 661.051 758.624C659.145 761.438 656.936 766.788 654.138 773.555C653.968 774.317 653.799 775.078 653.63 775.888C650.516 790.162 645.772 811.732 635.58 825.1C622.585 842.118 605.361 852.636 581.343 858.234L581.438 858.232ZM446.44 783.862C465.422 779.075 479.041 771.557 486.241 766.571C465.543 773.494 446.741 774.659 421.274 776.185C408.408 776.97 393.888 777.844 376.427 779.59C390.407 786.03 418.389 790.936 446.44 783.862ZM438.665 758.191C409.534 757.926 388.263 764.268 375.327 776.986C393.223 775.201 408.007 774.281 421.109 773.49C447.664 771.889 465.955 770.757 486.506 763.647C469.544 760.163 453.476 758.312 438.665 758.191ZM357.559 724.812C346.774 720.004 334.561 714.541 321.216 711.456C294.165 705.191 274.449 709.817 258.611 713.528C255.815 714.178 253.199 714.804 250.684 715.304C254.443 715.652 258.389 715.949 262.44 716.261C274.517 717.192 288.187 718.233 302.403 720.973C302.832 721.057 303.16 721.314 303.349 721.669C303.489 721.93 303.535 722.241 303.486 722.555C303.344 723.279 302.646 723.77 301.913 723.609C287.859 720.902 274.254 719.85 262.263 718.946C256.135 718.469 250.262 718.023 244.84 717.386C246.023 718.482 247.316 719.784 248.803 721.271C258.622 731.151 275.042 747.707 309.081 753.632C340.058 759.029 354.882 751.613 364.687 746.702C365.285 746.383 365.884 746.112 366.436 745.843C371.531 743.344 375.848 740.781 379.248 738.61C362.203 744.019 344.262 742.208 320.549 737.258C319.826 737.116 319.343 736.39 319.504 735.656C319.646 734.933 320.372 734.451 321.105 734.612C346.484 739.897 365.037 741.551 382.917 734.425C375.125 732.58 366.869 728.919 357.577 724.755L357.559 724.812ZM493.657 666.062C493.851 668.813 493.999 671.612 494.163 674.306C494.652 682.92 495.166 691.808 496.636 700.331C498.761 712.558 502.016 721.641 506.883 728.978C512.025 736.696 518.988 742.34 528.082 746.179C519.674 732.598 514.229 713.912 508.878 695.585C504.005 678.873 498.997 661.683 491.84 649.282C492.797 655.175 493.306 660.948 493.657 666.062ZM536.642 729.387C540.365 720.665 544.222 711.655 543.525 701.21C542.817 690.651 537.992 679.118 530.293 669.524C521.947 659.123 510.371 651.211 496.499 646.369C502.858 651.016 511.341 657.578 518.709 665.693C518.777 665.777 518.856 665.879 518.905 665.972C519.184 666.495 519.088 667.17 518.626 667.608C518.08 668.114 517.218 668.07 516.73 667.515C509.245 659.27 500.485 652.592 494.155 648.001C494.591 648.775 495.065 649.53 495.493 650.334C502.111 662.758 506.84 679.018 511.453 694.837C516.483 712.112 521.616 729.716 529.188 742.807C529.243 739.085 529.903 734.56 530.677 729.351C531.659 722.688 532.799 715.149 532.857 707.516C532.866 706.767 533.467 706.184 534.205 706.174C534.716 706.189 535.15 706.462 535.378 706.892C535.478 707.079 535.55 707.304 535.528 707.532C535.456 715.365 534.318 722.998 533.31 729.747C532.657 734.149 532.051 738.189 531.873 741.545C533.194 737.364 534.889 733.343 536.576 729.398L536.642 729.387ZM414.849 732.071C415.051 732.179 415.187 732.346 415.297 732.552C436.26 740.261 461.062 747.796 487.582 753.649C492.125 754.659 496.894 755.644 501.832 756.587C499.356 753.469 496.494 748.997 493.164 743.6C493.022 743.604 492.871 743.636 492.728 743.593C488.177 742.251 482.961 741.192 477.442 740.103C461.566 736.903 441.827 732.931 426.157 719.044C415.217 709.354 406.274 697.425 398.54 684.707C396.955 701.357 393.514 717.316 391.341 722.959C397.086 725.463 403.363 728.02 410.048 730.575C412.054 730.921 413.762 731.426 414.859 732.09L414.849 732.071ZM386.3 662.447C386.554 666.796 386.791 671.203 387.034 675.799C387.734 689.313 388.435 703.234 390.301 717.181C392.448 709.058 395.098 694.72 396.166 680.744C392.649 674.727 389.385 668.599 386.3 662.447ZM262.658 625.558C269.183 638.392 275.917 651.666 285.907 665.604C291.614 673.572 303.453 685.446 327.368 696.715C340.883 703.091 353.387 706.984 360.991 708.881C350.995 694.347 336.179 682.692 323.046 672.395C310.636 662.648 298.914 653.471 293.028 643.319C292.661 642.675 292.866 641.846 293.51 641.479C294.154 641.112 294.983 641.318 295.35 641.962C300.969 651.657 312.499 660.697 324.695 670.27C327.362 672.351 330.088 674.497 332.824 676.709C302.066 633.324 268.513 605.939 254.407 597.192C250.077 594.51 245.872 592.288 241.859 590.516C250.171 601.079 256.255 612.996 262.648 625.54L262.658 625.558ZM351.799 677.49C344.775 662.141 332.961 640.276 316.561 623.397C287.224 593.214 262.425 589.827 244.896 588.971C248.442 590.631 252.1 592.592 255.863 594.929C270.787 604.176 287.878 619.201 305.246 638.394C318.033 652.497 331.2 669.203 340.507 683.073C348.766 690.162 356.714 698.016 362.959 706.994C361.39 701.258 357.742 690.538 351.781 677.5L351.799 677.49ZM368.39 586.149C367.208 584.74 366.093 583.367 365.017 582.021C359.779 622.921 357.243 669.074 383.056 710.871C375.258 691.281 364.406 656.816 367.788 622.877C367.873 622.136 368.522 621.598 369.253 621.665C369.708 621.71 370.094 621.984 370.303 622.377C370.423 622.601 370.486 622.855 370.446 623.14C366.886 658.997 379.468 695.538 387.186 713.9C385.633 701.08 384.981 688.332 384.338 675.916C383.994 669.192 383.668 662.818 383.211 656.513C383.209 656.419 383.235 656.333 383.232 656.238C380.873 651.403 378.609 646.613 376.395 641.916C376.375 641.879 376.384 641.85 376.374 641.832C376.303 641.653 376.279 641.474 376.275 641.285C376.265 641.266 376.263 641.219 376.272 641.19C376.296 641.01 376.357 640.809 376.467 640.655C376.485 640.645 376.523 640.625 376.531 640.596C376.531 640.596 376.54 640.568 376.549 640.539C376.586 640.519 376.623 640.499 376.642 640.489C376.762 640.354 376.901 640.256 377.051 640.176C377.107 640.146 377.144 640.126 377.2 640.096C377.407 640.034 377.623 639.991 377.842 640.042C379.117 640.274 380.365 640.545 381.631 640.806C379.748 626.244 376.667 615.102 372.008 605.951C371.66 605.297 371.942 604.475 372.605 604.146C373.259 603.797 374.052 604.071 374.4 604.725L374.41 604.743C379.328 614.38 382.498 626.05 384.429 641.378C387.78 642.088 391.01 642.885 394.175 643.694C388.751 610.823 377.471 597.165 368.353 586.168L368.39 586.149ZM458.575 680.599C439.599 662.574 415.872 650.892 384.348 644.108C389.512 647.545 395.548 651.765 401.503 656.148C415.334 666.313 428.813 680.095 441.836 693.424C450.686 702.477 459.06 711.04 467.393 718.401C467.519 718.502 467.617 718.642 467.687 718.773C467.945 719.258 467.885 719.866 467.518 720.302C467.021 720.854 466.171 720.923 465.618 720.426C457.208 713.01 448.814 704.41 439.916 695.311C426.951 682.046 413.559 668.337 399.921 658.309C393.194 653.378 386.397 648.629 380.878 645.021C392.837 670.309 406.603 698.089 427.951 717.009C443.078 730.418 461.637 734.155 477.988 737.437C482.557 738.362 486.935 739.243 490.938 740.277C490.836 739.995 490.714 739.677 490.602 739.376C482.458 726.158 471.395 708.403 456.971 693.253C456.465 692.708 456.471 691.865 457.017 691.358C457.562 690.852 458.405 690.859 458.912 691.404C469.724 702.746 478.622 715.49 485.845 726.753C479.9 711.452 471.475 692.843 458.565 680.58L458.575 680.599ZM591.917 738.175C603.013 743.657 614.554 746.552 621.316 748.083C613.056 740.634 603.961 735.262 591.731 728.057C584.395 723.738 576.117 718.866 566.296 712.537C569.619 722.783 578.212 731.397 591.917 738.175ZM609.128 724.931C595.013 712.207 580.306 710.255 568.329 710.638C577.881 716.775 585.937 721.502 593.11 725.74C605.513 733.044 614.743 738.488 623.158 746.094C621.665 741.085 618.28 733.199 609.128 724.931ZM543.382 823.699C561.507 811.406 573.934 782.698 578.429 769.799C568.233 776.765 559.448 787.057 551.656 796.243C544.004 805.284 536.754 813.823 529.304 817.887C528.65 818.235 527.83 818.001 527.482 817.347C527.133 816.693 527.378 815.891 528.021 815.524C535.042 811.689 542.126 803.335 549.623 794.496C550.606 793.325 551.626 792.135 552.646 790.944C535.516 802.946 509.307 824.101 494.856 845.182C493.049 847.823 491.478 850.411 490.123 852.907C497.607 847.602 505.725 843.709 514.246 839.674C523.524 835.26 533.11 830.705 543.41 823.708L543.382 823.699ZM518.553 793.202C496.623 817.978 491.199 836.337 488.899 849.53C490.033 847.607 491.241 845.644 492.61 843.668C510 818.288 544.015 792.927 559.636 782.999C564.84 777.373 570.467 772.002 576.662 767.742C575.392 767.699 574.114 767.685 572.863 767.632C560.008 769.202 535.011 774.626 518.563 793.221L518.553 793.202ZM633.549 823.447C640.838 813.904 645.264 799.795 648.333 787.415C644.466 796.047 639.729 805.429 633.854 814.027C633.434 814.634 632.586 814.798 631.979 814.378C631.372 813.958 631.208 813.11 631.628 812.503C640.668 799.269 647.031 783.936 651.673 772.709C651.69 772.604 651.725 772.49 651.741 772.385C649.224 773.198 646.478 773.894 643.618 774.602C632.753 777.343 620.431 780.453 611.049 791.83C597.866 807.821 590.266 831.32 583.751 852.851C587.092 849.895 591.039 846.186 594.916 842.346C603.566 833.782 611.84 822.035 619.83 810.656C625.327 802.835 630.514 795.468 635.793 789.082C636.262 788.521 637.121 788.423 637.692 788.91C637.828 789.03 637.944 789.159 638.024 789.309C638.273 789.776 638.232 790.374 637.883 790.799C632.677 797.098 627.499 804.437 622.048 812.209C613.984 823.675 605.647 835.527 596.821 844.258C593.212 847.835 589.533 851.282 586.341 854.157C606.843 848.441 621.954 838.593 633.52 823.439L633.549 823.447Z" fill="#7E7E7E"/>
<path d="M692.804 1027.68C692.804 1027.68 692.715 1027.76 692.707 1027.79C692.545 1028.02 692.399 1028.18 692.16 1028.32C692.08 1028.37 692 1028.41 691.92 1028.46C691.689 1028.57 691.466 1028.64 691.188 1028.67C691.125 1028.65 691.077 1028.71 691.005 1028.72C691.005 1028.72 690.974 1028.71 690.942 1028.71C690.942 1028.71 690.911 1028.7 690.879 1028.69C690.578 1028.68 690.272 1028.56 689.997 1028.45C689.933 1028.44 689.919 1028.36 689.856 1028.35C689.629 1028.18 689.442 1028 689.295 1027.79C689.272 1027.75 689.209 1027.73 689.186 1027.69C670.628 995.837 649.601 959.703 645.045 925.012C641.915 901.138 652.16 882.571 660.413 867.658C663.238 862.538 665.923 857.685 667.78 853.15C667.789 853.119 667.828 853.095 667.837 853.064C665.151 847.075 662.933 841.989 661.538 837.866C661.211 838.454 660.916 839.051 660.59 839.639C642.077 873.553 617.732 904.521 591.403 932.052C600.389 947.936 623.697 997.751 617.905 1034.87C614.907 1054.13 609.901 1069.91 605.047 1085.13C599.815 1101.63 594.86 1117.22 593.872 1134.15C593.844 1134.38 593.825 1134.58 593.703 1134.78L593.686 1134.84C593.627 1135.06 593.482 1135.23 593.336 1135.39C593.288 1135.44 593.24 1135.5 593.16 1135.55C593.023 1135.68 592.863 1135.77 592.703 1135.86C592.663 1135.89 592.623 1135.91 592.583 1135.93C592.583 1135.93 592.52 1135.91 592.512 1135.95C592.48 1135.94 592.432 1135.99 592.392 1136.02C592.361 1136.01 592.298 1135.99 592.226 1136C591.9 1136.09 591.599 1136.07 591.276 1136.02C591.213 1136 591.15 1135.99 591.087 1135.97C590.74 1135.88 590.459 1135.67 590.202 1135.36C590.202 1135.36 590.139 1135.34 590.116 1135.3L588.72 1133.58C575.282 1116.91 554.974 1091.71 549.114 1030.49C546.264 1000.78 557.438 973.58 568.303 954.841C545.222 976.555 521.527 995.639 499.577 1011.74C497.807 1017.22 495.93 1022.45 493.963 1027.4C494.125 1027.68 494.238 1028.01 494.248 1028.35C494.267 1028.66 494.363 1060.2 470.5 1103.49C456.974 1128 439.326 1145.7 426.881 1156.21C411.593 1169.14 395.651 1178.58 383.086 1182.1C383.054 1182.09 382.991 1182.08 382.951 1182.1C382.768 1182.15 382.602 1182.14 382.405 1182.12C382.31 1182.1 382.199 1182.13 382.104 1182.11C381.915 1182.06 381.757 1182.02 381.585 1181.9C381.491 1181.88 381.427 1181.86 381.333 1181.83C381.333 1181.83 381.333 1181.84 381.301 1181.83C381.301 1181.83 381.27 1181.82 381.238 1181.81C381.075 1181.66 380.951 1181.5 380.827 1181.33C380.804 1181.29 380.749 1181.24 380.726 1181.2C380.588 1180.96 380.498 1180.67 380.471 1180.39C373.795 1115.41 453.568 1052.58 489.332 1027.91C490.869 1024.07 492.391 1020.15 493.806 1016.01C488.566 1019.81 483.407 1023.42 478.443 1026.82C440.926 1052.6 403.373 1073.99 370.618 1090.07C362.975 1096.02 353.061 1108.06 351.636 1115.14C351.543 1115.49 351.45 1116.34 351.329 1117.42C350.608 1123.14 348.879 1136.53 343.879 1152.92C343.634 1153.83 343.309 1154.79 343.016 1155.76C338.367 1171.47 330.573 1197.79 290.832 1227.84C247.283 1260.75 210.528 1261.88 188.559 1262.55C181.749 1262.75 176.363 1262.93 173.257 1264.05C173.257 1264.05 173.194 1264.04 173.154 1264.06C173.074 1264.11 172.98 1264.08 172.868 1264.12C172.725 1264.15 172.551 1264.17 172.385 1264.16C172.29 1264.13 172.196 1264.11 172.133 1264.09C171.975 1264.05 171.849 1264.01 171.691 1263.97C171.597 1263.95 171.502 1263.92 171.456 1263.84C171.315 1263.74 171.175 1263.63 171.074 1263.5C171.019 1263.45 170.956 1263.44 170.933 1263.4C170.933 1263.4 170.942 1263.37 170.91 1263.36C170.91 1263.36 170.879 1263.35 170.856 1263.31C170.732 1263.14 170.648 1262.95 170.604 1262.73C170.604 1262.73 170.604 1262.73 170.581 1262.69C170.514 1262.44 170.51 1262.2 170.538 1261.97C170.554 1261.91 170.58 1261.82 170.597 1261.75C170.639 1261.6 170.681 1261.44 170.723 1261.28C170.749 1261.19 170.829 1261.14 170.854 1261.04C170.879 1260.95 170.936 1260.86 170.984 1260.81C176.326 1254.74 180.975 1246.6 186.413 1237.15C199.1 1215.01 214.895 1187.46 251.232 1163.05C269.077 1151.05 288.273 1142.95 305.23 1135.77C322.338 1128.54 337.158 1122.27 347.743 1113.66C349.073 1108.44 353.507 1101.73 358.695 1095.86C335.448 1106.72 315.146 1114.65 299.826 1119.13C299.794 1119.12 299.763 1119.11 299.723 1119.13C282.788 1131.15 217.253 1169.08 164.208 1162.16C137.67 1158.7 115.464 1152.31 94.022 1146.09C70.6891 1139.36 48.68 1132.99 25.5231 1132.3C25.3571 1132.28 25.1995 1132.24 25.0419 1132.2C25.0103 1132.19 24.9788 1132.18 24.9473 1132.17C24.7267 1132.12 24.5229 1131.99 24.3276 1131.84C24.2646 1131.82 24.2184 1131.74 24.1953 1131.7C24.063 1131.57 23.9308 1131.43 23.8385 1131.27C23.807 1131.26 23.7839 1131.22 23.7608 1131.18C23.7608 1131.18 23.7777 1131.12 23.7462 1131.11C23.7546 1131.08 23.7 1131.03 23.6769 1130.99C23.6539 1130.95 23.7023 1130.9 23.6562 1130.82C23.5661 1130.52 23.5476 1130.21 23.592 1129.92C23.6089 1129.86 23.6258 1129.79 23.6511 1129.7C23.744 1129.35 23.8915 1129.05 24.165 1128.79L24.1819 1128.73C25.1878 1127.75 26.1937 1126.77 27.2164 1125.72C47.0017 1106.1 76.8817 1076.41 149.396 1074.97C176.294 1074.44 203.549 1079.52 226.023 1085.54C234.376 1087.78 242.054 1090.14 248.815 1092.39C275.452 1101.28 295.582 1111.13 300.361 1114.61C309.581 1111.84 320.436 1107.9 332.671 1102.83C246.292 1091.85 191.811 1033.68 147.415 979.733C146.88 979.082 146.792 978.147 147.193 977.41C147.593 976.673 148.415 976.252 149.268 976.345C153.361 976.834 157.686 977.081 162.272 977.364C173.248 978.008 185.521 978.73 200.273 982.682C216.096 986.922 234.801 994.906 257.85 1010.51C293.378 988.614 327.359 977.286 363.07 975.134C378.284 974.212 394.111 976.798 409.209 980.843C428.531 986.021 446.625 993.639 460.687 999.534C461.96 1000.08 463.21 1000.58 464.42 1001.11C464.83 1001.22 465.257 1001.27 465.635 1001.37C480.024 1004.28 491.408 1006.55 498.437 1006.54C498.643 1006.53 498.801 1006.57 498.99 1006.62L499.053 1006.64C499.116 1006.66 499.147 1006.66 499.17 1006.7C499.265 1006.73 499.328 1006.75 499.414 1006.8C514.795 995.422 530.959 982.629 547.146 968.492C538.034 971.859 528.034 972.49 517.418 971.132C500.92 979.748 484.709 982.632 467.927 979.824C453.987 977.508 439.779 971.404 423.273 960.632C411.92 953.199 401.257 944.329 390.952 935.759C387.752 933.078 384.433 930.331 381.162 927.664C372.814 920.868 362.805 913.086 351.829 906.767C351.829 906.767 351.829 906.767 351.797 906.759C351.68 906.693 351.602 906.605 351.493 906.508C351.384 906.411 351.306 906.323 351.197 906.226C351.165 906.218 351.151 906.146 351.096 906.098C351.05 906.018 351.035 905.946 351.012 905.907C350.943 905.787 350.882 905.635 350.853 905.492C350.853 905.492 350.838 905.421 350.807 905.412C350.824 905.349 350.84 905.286 350.794 905.206C350.803 905.175 350.748 905.126 350.765 905.063C350.773 905.032 350.782 905 350.799 904.937C350.816 904.874 350.761 904.826 350.778 904.763C350.786 904.731 350.795 904.7 350.803 904.668C350.846 904.511 350.879 904.385 350.913 904.259C350.922 904.227 350.938 904.164 350.947 904.133C350.955 904.101 350.972 904.038 350.981 904.007C350.989 903.975 350.998 903.944 351.038 903.921C351.103 903.803 351.191 903.725 351.288 903.616C351.385 903.507 351.473 903.429 351.562 903.352C351.562 903.352 351.61 903.297 351.65 903.274C375.519 887.952 401.371 880.863 426.479 882.727C433.041 883.201 439.529 884.332 445.77 886.004C458.189 889.332 469.573 894.882 478.421 902.082C491.703 912.903 498.002 927.222 504.103 941.016C508.22 950.361 512.15 959.148 518.041 967.043C530.592 968.616 542.163 967.292 552.16 961.628C552.96 961.167 553.899 961.317 554.554 961.898C562.567 954.689 570.561 947.171 578.41 939.311C583.044 932.987 586.35 929.347 586.487 929.215C586.946 928.763 587.575 928.56 588.199 928.626C588.293 928.652 588.388 928.677 588.482 928.702C588.577 928.728 588.632 928.776 588.695 928.793C606.695 909.906 623.78 889.389 638.618 867.425C631.388 866.67 624.775 866.384 618.519 866.532C617.783 867.01 616.83 867.667 615.629 868.493C607.357 874.146 590.19 885.894 569.821 893.574C544.155 903.247 522.614 902.947 505.745 892.651C505.509 892.52 505.323 892.335 505.153 892.087C505.075 891.999 505.069 891.896 505.023 891.816C504.953 891.696 504.853 891.568 504.832 891.393C504.832 891.393 504.84 891.362 504.849 891.33C504.849 891.33 504.857 891.299 504.834 891.259C504.828 891.156 504.853 891.061 504.847 890.958C504.826 890.784 504.837 890.618 504.879 890.46C504.904 890.366 504.938 890.24 504.964 890.145C505.006 889.988 505.079 889.838 505.185 889.698C505.193 889.666 505.21 889.603 505.218 889.572C517.975 873.738 537.006 855.161 571.203 852.232C582.927 851.219 592.326 852.454 599.607 854.405C607.96 856.643 613.589 859.841 616.875 861.7C617.314 861.953 617.698 862.157 618.083 862.362C625.265 862.159 632.843 862.5 641.296 863.482C646.819 855.099 652.029 846.498 656.846 837.724C665.583 821.758 673.939 801.672 679.268 784.051C679.302 783.925 679.391 783.847 679.424 783.721L850.614 144.832C851.135 139.736 853.704 141.37 853.704 141.37C854.807 141.666 855.485 142.793 855.181 143.927L682.403 788.741C682.31 789.088 682.1 789.369 681.858 789.642C677.257 803.912 670.927 819.34 664.14 832.821C664.209 832.941 664.318 833.038 664.347 833.181C665.512 838.289 669.215 846.408 673.895 856.68C674.575 857.673 675.255 858.666 675.989 859.707C688.795 878.235 708.105 906.276 712.442 931.823C717.944 964.371 711.671 994.844 692.707 1027.79L692.804 1027.68ZM466.971 1101.53C481.551 1075.11 487.411 1051.85 489.368 1038.5C475.391 1069.1 456.92 1091.51 431.843 1121.81C419.19 1137.13 404.898 1154.41 388.493 1175.92C410.458 1166.94 445.428 1140.58 466.971 1101.53ZM429.869 1083.28C398.92 1115.82 383.683 1146.46 384.402 1174.42C401.22 1152.38 415.739 1134.75 428.634 1119.16C454.77 1087.55 472.74 1065.75 486.354 1035.12C464.58 1050.57 445.589 1066.72 429.869 1083.28ZM306.924 1139.54C290.159 1146.63 271.154 1154.64 253.637 1166.43C218.116 1190.32 202.583 1217.4 190.099 1239.15C187.89 1242.98 185.843 1246.59 183.76 1249.95C188.107 1246.08 192.594 1241.94 197.208 1237.71C210.963 1225.08 226.519 1210.77 244.565 1197.64C245.11 1197.25 245.745 1197.15 246.344 1197.31C246.785 1197.43 247.184 1197.7 247.487 1198.09C248.152 1199.01 247.972 1200.31 247.019 1200.97C229.181 1213.95 213.682 1228.17 200.046 1240.73C193.061 1247.14 186.38 1253.28 179.956 1258.72C182.437 1258.54 185.264 1258.46 188.503 1258.34C209.965 1257.68 245.896 1256.6 288.387 1224.48C327.061 1195.26 334.303 1170.75 339.087 1154.54C339.357 1153.53 339.682 1152.57 339.958 1151.67C342.505 1143.3 344.159 1135.73 345.29 1129.62C333.451 1154.52 312.532 1172.82 282.006 1194.33C281.084 1195 279.758 1194.78 279.101 1193.82C278.436 1192.9 278.656 1191.58 279.609 1190.92C312.267 1167.89 333.651 1148.73 344.436 1121.08C334.158 1127.92 321.347 1133.37 306.878 1139.46L306.924 1139.54ZM383.932 924.387C387.235 927.062 390.545 929.84 393.753 932.49C403.972 941.004 414.527 949.777 425.676 957.087C441.687 967.558 455.346 973.447 468.733 975.683C482.839 978.011 496.525 976.105 510.418 969.898C486.269 965.082 459.488 951.556 433.21 938.3C409.254 926.207 384.616 913.762 363.114 908.778C370.762 913.9 377.801 919.401 383.932 924.387ZM500.506 942.586C494.596 929.215 488.504 915.389 476.002 905.183C463.36 894.872 445.29 888.172 426.38 886.753C405.881 885.212 384.786 889.929 364.734 900.464C376.661 898.188 392.98 895.536 409.875 895.773C410.041 895.784 410.239 895.803 410.397 895.845C411.279 896.082 411.938 896.9 411.946 897.882C411.942 899.029 410.985 899.955 409.845 899.92C392.681 899.677 375.939 902.521 364.107 904.822C365.439 905.145 366.788 905.405 368.144 905.768C389.105 911.385 412.4 923.166 435.076 934.612C459.832 947.122 485.067 959.862 507.783 965.105C503.647 961.126 499.243 955.622 494.189 949.269C487.715 941.151 480.422 931.935 471.882 923.838C471.048 923.04 471.022 921.75 471.788 920.908C472.344 920.348 473.107 920.147 473.832 920.341C474.147 920.425 474.477 920.581 474.71 920.846C483.46 929.169 490.863 938.482 497.406 946.72C501.677 952.086 505.592 957.019 509.186 960.752C505.865 954.864 503.119 948.724 500.45 942.672L500.506 942.586ZM375.381 1082.63C375.716 1082.52 376.048 1082.54 376.395 1082.63C407.137 1067.12 441.723 1047.11 476.221 1023.39C482.138 1019.33 488.266 1015 494.525 1010.43C488.407 1009.93 480.358 1008.45 470.773 1006.53C470.627 1006.69 470.505 1006.89 470.305 1007.01C464.006 1010.73 457.324 1015.49 450.289 1020.56C429.98 1035.08 404.736 1053.14 372.603 1056.18C350.175 1058.31 327.324 1055.84 304.859 1051.17C321.95 1070.47 336.31 1091.14 340.381 1099.53C349.247 1095.69 358.732 1091.31 368.644 1086.47C371.146 1084.57 373.512 1083.18 375.413 1082.64L375.381 1082.63ZM266.9 1041.54C272.068 1045.83 277.282 1050.2 282.715 1054.76C298.677 1068.19 315.099 1082.05 332.777 1094.62C325.885 1083.65 312.517 1065.58 297.895 1049.67C287.415 1047.31 277.076 1044.54 266.9 1041.54ZM95.2458 1142.03C116.57 1148.18 138.611 1154.56 164.825 1157.97C179.808 1159.92 205.642 1159.08 243.502 1143.99C264.906 1135.47 282.448 1125.48 292.587 1118.91C265.694 1114.88 236.974 1119.31 211.554 1123.27C187.515 1127 164.841 1130.55 147.21 1126.5C146.098 1126.23 145.381 1125.13 145.645 1124.02C145.909 1122.91 147.013 1122.19 148.125 1122.45C164.96 1126.32 187.276 1122.85 210.894 1119.18C216.045 1118.36 221.33 1117.55 226.702 1116.79C145.46 1105.8 79.3016 1114.79 54.6039 1121.48C47.026 1123.53 40.0994 1125.93 33.8807 1128.59C54.5267 1130.34 74.3547 1136.02 95.2144 1142.02L95.2458 1142.03ZM247.548 1096.24C222.863 1088 185.799 1078.31 149.526 1079.02C84.6526 1080.32 54.7429 1104.69 35.3347 1123.54C40.937 1121.29 46.9952 1119.24 53.5869 1117.46C79.7081 1110.37 114.618 1106.92 154.517 1107.55C183.861 1107.98 216.537 1110.73 241.956 1114.83C258.634 1112.99 275.845 1112.3 292.53 1114.71C284.417 1110.44 268.501 1103.27 247.539 1096.27L247.548 1096.24ZM162.093 981.436C159.262 981.286 156.542 981.097 153.894 980.894C194.464 1029.83 243.794 1081.25 318.045 1096.14C287.768 1084.32 237.52 1060.28 202.84 1020.76C202.095 1019.88 202.172 1018.59 203.016 1017.83C203.546 1017.37 204.261 1017.22 204.923 1017.4C205.301 1017.5 205.654 1017.7 205.933 1018.04C242.586 1059.78 296.994 1084.05 325.803 1094.68C309.725 1082.94 294.677 1070.26 280.01 1057.92C272.072 1051.23 264.548 1044.89 256.965 1038.77C256.856 1038.68 256.786 1038.56 256.677 1038.46C248.747 1036.03 240.968 1033.54 233.347 1031.1C233.284 1031.08 233.261 1031.04 233.229 1031.03C232.954 1030.92 232.727 1030.76 232.509 1030.57C232.477 1030.56 232.423 1030.51 232.4 1030.47C232.221 1030.25 232.06 1029.97 232.001 1029.69C232.01 1029.66 232.027 1029.59 232.004 1029.55C232.004 1029.55 231.981 1029.51 231.957 1029.47C231.974 1029.41 231.991 1029.35 232 1029.32C231.973 1029.04 232.009 1028.78 232.076 1028.53C232.102 1028.43 232.118 1028.37 232.144 1028.27C232.291 1027.98 232.47 1027.69 232.758 1027.49C234.361 1026.3 235.979 1025.18 237.605 1024.03C219.217 1010.83 203.422 1002.58 188.21 998.196C187.107 997.9 186.478 996.718 186.805 995.624C187.101 994.521 188.243 993.915 189.346 994.21L189.377 994.219C205.408 998.818 221.893 1007.52 241.194 1021.48C245.519 1018.45 249.817 1015.65 254.058 1012.93C211.317 984.459 184.06 982.796 162.076 981.499L162.093 981.436ZM363.398 979.208C323.123 981.622 284.997 996.062 244.184 1024.44C253.49 1022.24 264.596 1019.88 275.799 1017.78C301.805 1012.89 331.515 1012.21 360.235 1011.56C379.747 1011.12 398.205 1010.69 415.266 1009.05C415.512 1009.01 415.773 1009.05 415.994 1009.11C416.813 1009.33 417.435 1010.03 417.539 1010.91C417.638 1012.05 416.822 1013.08 415.68 1013.18C398.475 1014.85 379.954 1015.26 360.34 1015.71C331.754 1016.36 302.218 1017.02 276.571 1021.84C263.937 1024.23 251.433 1026.89 241.562 1029.31C282.637 1042.44 328.419 1056.16 372.198 1052.02C403.221 1049.09 426.959 1032.11 447.861 1017.14C453.71 1012.96 459.31 1008.96 464.686 1005.54C464.262 1005.36 463.774 1005.16 463.318 1004.97C439.857 1000.24 408.212 994.019 375.967 994.329C374.82 994.326 373.877 993.431 373.88 992.284C373.884 991.137 374.778 990.194 375.926 990.198C400.08 989.949 423.802 993.332 444.09 997.046C420.596 987.644 390.766 977.557 363.366 979.199L363.398 979.208ZM568.566 889.557C586.418 882.823 601.822 872.866 610.662 866.858C593.579 868.327 577.956 872.922 556.971 879.121C544.386 882.841 530.187 887.041 512.723 891.447C527.763 898.483 546.509 897.866 568.566 889.557ZM571.753 856.23C542.566 858.745 524.893 873.261 512.723 887.158C529.687 882.854 543.489 878.75 555.811 875.128C577.09 868.84 592.936 864.169 610.359 862.69C603.145 859.102 590.698 854.619 571.753 856.23ZM613.856 1034.23C619.077 1000.87 599.808 956.663 590.004 938.027C587.124 956.845 589.476 977.571 591.628 996.015C593.762 1014.15 595.754 1031.3 592.495 1043.97C592.199 1045.07 591.072 1045.75 589.968 1045.46C588.865 1045.16 588.219 1044.04 588.483 1042.93C591.549 1030.98 589.59 1014.21 587.521 996.468C587.235 994.128 586.967 991.726 586.698 989.324C582.197 1021.25 578.456 1073.04 587.001 1111.5C588.076 1116.32 589.338 1120.81 590.725 1124.96C592.622 1110.95 596.778 1097.71 601.198 1083.86C605.986 1068.76 610.942 1053.17 613.896 1034.2L613.856 1034.23ZM553.371 1030.11C558.211 1080.89 573.188 1106.32 585.632 1122.79C584.659 1119.49 583.719 1116.06 582.932 1112.44C572.635 1066.14 579.851 1001.13 585.103 973.089C584.239 961.307 584.108 949.315 585.828 937.853C584.443 939.239 583.082 940.664 581.705 942.018C569.949 958.153 549.759 992.024 553.403 1030.12L553.371 1030.11ZM708.444 932.373C705.362 914.119 694.122 894.288 683.403 877.804C689.059 891.242 694.646 906.452 698.151 922.117C698.394 923.229 697.686 924.357 696.574 924.599C695.462 924.842 694.334 924.134 694.091 923.022C688.693 898.913 678.113 875.61 670.349 858.567C670.248 858.439 670.156 858.279 670.055 858.15C668.323 861.841 666.217 865.667 664.005 869.634C655.662 884.759 646.2 901.915 649.147 924.456C653.294 956.133 671.772 989.422 689.174 1019.42C689.361 1012.54 689.335 1004.19 689.088 995.784C688.539 977.027 684.011 955.346 679.598 934.371C676.57 919.949 673.727 906.352 672.087 893.686C671.948 892.568 672.741 891.497 673.891 891.366C674.169 891.339 674.438 891.344 674.69 891.411C675.478 891.622 676.108 892.298 676.22 893.139C677.839 905.63 680.66 919.187 683.681 933.506C688.115 954.656 692.696 976.52 693.246 995.649C693.478 1003.48 693.491 1011.25 693.372 1017.87C708.503 988.76 713.308 961.372 708.404 932.396L708.444 932.373Z" fill="#7E7E7E"/>
</svg>
